<svg width="549" height="501" viewBox="0 0 549 501" fill="none" xmlns="http://www.w3.org/2000/svg">
<path opacity="0.3" d="M262.5 5.00001C262.5 2.51473 264.515 0.5 267 0.5H579C581.485 0.5 583.5 2.51472 583.5 5V422C583.5 424.485 581.485 426.5 579 426.5H423C334.358 426.5 262.5 354.642 262.5 266V5.00001Z" fill="#F7F7F7" stroke="black"/>
<path opacity="0.05" d="M101 79C101 76.2386 103.239 74 106 74H418C420.761 74 423 76.2386 423 79V496C423 498.761 420.761 501 418 501H262C173.082 501 101 428.918 101 340V79Z" fill="black"/>
<path d="M6.71545 158.027C6.71551 140.723 10.8 123.664 18.6348 108.247C26.4696 92.8298 37.8321 79.4923 51.7926 69.3256C65.7531 59.1588 81.915 52.4517 98.956 49.7529C115.997 47.0541 133.433 48.4404 149.837 53.7983C166.242 59.1563 181.148 68.3336 193.337 80.5795C205.527 92.8253 214.652 107.792 219.968 124.254C225.283 140.717 226.637 158.208 223.919 175.296C221.201 192.385 214.489 208.585 204.33 222.571C188.731 246.149 148.198 272.769 148.198 288.718V306.938C148.198 307.803 148.029 308.659 147.699 309.458C147.369 310.257 146.885 310.983 146.275 311.595C145.666 312.206 144.942 312.691 144.145 313.022C143.349 313.353 142.495 313.523 141.633 313.523H90.3671C89.5049 313.523 88.6512 313.353 87.8547 313.022C87.0581 312.691 86.3344 312.206 85.7247 311.595C85.1151 310.983 84.6315 310.257 84.3016 309.458C83.9717 308.659 83.8019 307.803 83.802 306.938V288.718C83.802 272.769 43.2688 246.149 27.67 222.571C14.0209 203.839 6.68072 181.229 6.71545 158.027Z" fill="#F2C94C"/>
<path d="M128.41 311.707C128.282 308.96 126.326 264.958 129.838 226.394C120.642 227.439 111.358 227.439 102.162 226.394C105.675 264.958 103.717 308.96 103.59 311.707L101.663 311.617C101.694 310.939 103.721 265.426 100.13 226.132C67.7165 221.611 53.2087 203.193 50.6037 185.811C49.0811 175.651 52.54 165.54 58.8284 161.768C60.8339 160.623 63.0563 159.913 65.3524 159.682C67.6485 159.451 69.9673 159.706 72.1594 160.429C79.8783 162.65 87.2143 169.322 91.7836 178.275C97.0591 188.615 100.179 205.784 101.977 224.421C111.294 225.517 120.706 225.517 130.023 224.421C131.822 205.783 134.941 188.615 140.217 178.275C144.786 169.322 152.122 162.651 159.841 160.429C162.033 159.706 164.352 159.452 166.648 159.682C168.944 159.913 171.167 160.624 173.172 161.768C179.46 165.54 182.919 175.651 181.396 185.811C178.791 203.193 164.283 221.611 131.87 226.132C128.279 265.426 130.306 310.939 130.337 311.617L128.41 311.707ZM165.247 161.567C163.597 161.579 161.956 161.822 160.373 162.289C153.158 164.366 146.265 170.671 141.934 179.157C136.86 189.102 133.827 205.849 132.056 224.149C163.106 219.66 177.005 202.101 179.489 185.524C180.878 176.259 177.736 166.761 172.183 163.43C170.084 162.185 167.685 161.541 165.247 161.567V161.567ZM66.7529 161.567C64.3153 161.541 61.917 162.185 59.8186 163.43C54.2649 166.761 51.1237 176.259 52.5115 185.524C54.9959 202.101 68.8936 219.66 99.9435 224.149C98.1725 205.849 95.1406 189.101 90.0659 179.157C85.7353 170.671 78.8424 164.366 71.6272 162.289C70.0441 161.822 68.4034 161.578 66.7529 161.567V161.567Z" fill="#F7F7F7"/>
<path d="M207.09 164.316C205.427 164.316 203.832 163.654 202.656 162.474C201.48 161.295 200.82 159.695 200.82 158.027C200.844 139.101 194.567 120.708 182.986 105.766C171.404 90.8246 155.18 80.1893 136.887 75.5475C135.275 75.1382 133.891 74.1033 133.039 72.6705C132.188 71.2377 131.939 69.5243 132.347 67.9072C132.755 66.2902 133.787 64.902 135.215 64.048C136.644 63.194 138.352 62.9441 139.964 63.3534C160.963 68.6802 179.588 80.887 192.884 98.0377C206.18 115.188 213.387 136.301 213.36 158.027C213.36 158.853 213.198 159.671 212.883 160.434C212.568 161.197 212.106 161.89 211.524 162.474C210.942 163.058 210.25 163.522 209.489 163.838C208.729 164.154 207.913 164.316 207.09 164.316Z" fill="#F7F7F7"/>
<path d="M113.894 66.4883C113.894 67.7322 114.262 68.9482 114.951 69.9824C115.64 71.0167 116.619 71.8228 117.765 72.2988C118.91 72.7748 120.171 72.8993 121.388 72.6567C122.604 72.414 123.721 71.815 124.598 70.9354C125.475 70.0559 126.072 68.9352 126.314 67.7152C126.556 66.4952 126.432 65.2307 125.957 64.0815C125.482 62.9323 124.679 61.9501 123.648 61.259C122.617 60.568 121.404 60.1991 120.164 60.1992C118.501 60.1993 116.906 60.8619 115.731 62.0413C114.555 63.2208 113.894 64.8204 113.894 66.4883Z" fill="#F7F7F7"/>
<g style="mix-blend-mode:multiply" opacity="0.55">
<g style="mix-blend-mode:multiply" opacity="0.55">
<path d="M225.074 164.509C219.042 209.455 182.864 255.988 116 255.988C49.1359 255.988 14.3081 207.278 6.92578 164.509C8.12569 185.462 15.3286 205.623 27.6699 222.571C43.269 246.149 83.8019 272.769 83.8019 288.718V306.938C83.8019 307.803 83.9717 308.659 84.3016 309.458C84.6315 310.257 85.1151 310.983 85.7247 311.595C86.3343 312.206 87.0581 312.691 87.8546 313.022C88.6511 313.353 89.5049 313.523 90.367 313.523H141.633C142.495 313.524 143.349 313.353 144.145 313.022C144.942 312.691 145.665 312.206 146.275 311.595C146.885 310.983 147.368 310.257 147.698 309.458C148.028 308.659 148.198 307.803 148.198 306.938V288.718C148.198 272.769 188.73 246.149 204.33 222.571C216.671 205.623 223.874 185.462 225.074 164.509Z" fill="#F2C94C"/>
</g>
</g>
<path d="M150.78 296.498H81.2192V329.752C81.2193 335.182 82.76 340.5 85.6613 345.084C88.3597 349.348 92.088 352.859 96.5003 355.292C100.913 357.724 105.866 359 110.901 359H121.099C126.134 359 131.087 357.724 135.5 355.291C139.912 352.858 143.641 349.347 146.339 345.083C149.24 340.499 150.78 335.182 150.78 329.752V296.498Z" fill="black"/>
<path opacity="0.3" d="M81.2135 318.922C81.4146 318.929 81.6158 318.922 81.8159 318.901L151.377 311.668C151.938 311.611 152.482 311.44 152.976 311.166C153.47 310.892 153.903 310.52 154.25 310.073C154.596 309.626 154.848 309.113 154.991 308.566C155.134 308.018 155.164 307.447 155.081 306.887C154.919 305.732 154.32 304.685 153.408 303.961C152.497 303.238 151.343 302.894 150.185 303.001L80.6234 310.234C80.0618 310.291 79.5177 310.461 79.0239 310.736C78.5301 311.01 78.097 311.382 77.7507 311.829C77.4045 312.276 77.1523 312.789 77.0096 313.336C76.8668 313.884 76.8364 314.455 76.9202 315.015C77.0686 316.066 77.5791 317.033 78.3632 317.746C79.1474 318.46 80.1557 318.876 81.2135 318.922Z" fill="#F7F7F7"/>
<path opacity="0.3" d="M81.2135 334.141C81.4146 334.148 81.6158 334.141 81.8159 334.12L151.377 326.887C151.938 326.83 152.482 326.66 152.976 326.386C153.47 326.112 153.904 325.74 154.25 325.293C154.596 324.846 154.848 324.333 154.991 323.785C155.134 323.237 155.165 322.666 155.081 322.106C154.918 320.952 154.319 319.905 153.408 319.181C152.496 318.458 151.342 318.114 150.185 318.221L80.6234 325.453C80.0618 325.51 79.5177 325.681 79.0239 325.955C78.5301 326.229 78.097 326.601 77.7507 327.048C77.4045 327.495 77.1523 328.008 77.0096 328.555C76.8668 329.103 76.8364 329.674 76.9202 330.234C77.0685 331.286 77.579 332.252 78.3631 332.966C79.1473 333.679 80.1557 334.095 81.2135 334.141Z" fill="#F7F7F7"/>
<path opacity="0.3" d="M83.9921 349.206C84.193 349.213 84.3941 349.206 84.5939 349.184L150.528 342.328C151.09 342.271 151.634 342.101 152.128 341.827C152.622 341.553 153.055 341.181 153.402 340.734C153.748 340.287 154 339.774 154.143 339.226C154.286 338.678 154.316 338.107 154.233 337.547C154.07 336.393 153.471 335.345 152.56 334.622C151.648 333.898 150.494 333.554 149.337 333.661L83.4019 340.518C82.8403 340.574 82.2961 340.745 81.8023 341.019C81.3085 341.293 80.8753 341.665 80.529 342.112C80.1827 342.559 79.9306 343.072 79.7879 343.62C79.6451 344.168 79.6148 344.739 79.6986 345.298C79.847 346.35 80.3575 347.316 81.1417 348.03C81.9259 348.744 82.9343 349.16 83.9921 349.206Z" fill="#F7F7F7"/>
<path d="M116 1.87643V36.3224" stroke="#F2C94C" stroke-width="3" stroke-linecap="round" stroke-linejoin="round"/>
<path d="M177.931 15.5963L164.061 47.108" stroke="#F2C94C" stroke-width="3" stroke-linecap="round" stroke-linejoin="round"/>
<path d="M230.129 53.7079L204.753 76.9169" stroke="#F2C94C" stroke-width="3" stroke-linecap="round" stroke-linejoin="round"/>
<path d="M54.0688 15.5963L67.9386 47.108" stroke="#F2C94C" stroke-width="3" stroke-linecap="round" stroke-linejoin="round"/>
<path d="M1.87061 53.7079L27.247 76.9169" stroke="#F2C94C" stroke-width="3" stroke-linecap="round" stroke-linejoin="round"/>
</svg>
