<svg width="156" height="148" viewBox="0 0 156 148" fill="none" xmlns="http://www.w3.org/2000/svg">
<path d="M147.371 119.099C147.371 120.574 146.265 121.782 144.912 121.782H11.9566C10.6044 121.782 9.49794 120.574 9.49794 119.099L8.3916 35.6448C8.3916 34.1692 9.98329 31.2884 12.9003 31.5049L142.839 27.8326C144.536 27.7847 146.177 28.498 147.378 29.806C148.58 31.1141 149.237 32.9026 149.197 34.7541L147.371 119.099Z" fill="black"/>
<path d="M144.944 116.525C144.944 117.922 143.898 119.066 142.618 119.066H15.1635C13.8842 119.066 12.8374 117.922 12.8374 116.525L11.7935 40.7646C11.9164 36.2055 15.5759 34.5669 17.7942 34.6637C17.7942 34.6637 119.353 31.6877 142.329 31.0144C143.521 30.9795 144.674 31.4811 145.518 32.4009C146.362 33.3207 146.826 34.5794 146.796 35.8815L144.944 116.525Z" fill="#E0E0E0"/>
<path d="M3.44476 121.377H153.351C153.459 121.377 153.562 121.42 153.638 121.496C153.715 121.573 153.758 121.677 153.758 121.785V128.302C153.758 128.41 153.715 128.513 153.638 128.59C153.562 128.666 153.459 128.709 153.351 128.709H3.44476C3.39135 128.709 3.33847 128.699 3.28913 128.678C3.23979 128.658 3.19496 128.628 3.1572 128.59C3.11943 128.552 3.08948 128.507 3.06904 128.458C3.0486 128.408 3.03809 128.355 3.03809 128.302V121.785C3.03809 121.731 3.0486 121.678 3.06904 121.629C3.08948 121.579 3.11943 121.534 3.1572 121.496C3.19496 121.458 3.23979 121.428 3.28913 121.408C3.33847 121.387 3.39135 121.377 3.44476 121.377Z" fill="black"/>
<path d="M16.9032 39.1563L105.604 37.0713C107.046 37.0374 108.241 37.898 108.241 38.9716V39.9605C108.241 40.9918 107.135 41.8351 105.749 41.8612L17.0868 43.5318C15.6995 43.5579 14.5376 42.7559 14.4691 41.7249L14.4309 41.1506C14.3603 40.0885 15.4744 39.1899 16.9032 39.1563Z" fill="#F7F7F7"/>
<g filter="url(#filter0_d_457_439)">
<path d="M105.592 39.4294C105.78 37.9225 104.737 36.5505 103.261 36.365C101.786 36.1795 100.437 37.2508 100.249 38.7578C100.202 39.1305 100.23 39.5092 100.333 39.8705C100.437 40.2318 100.612 40.5682 100.849 40.8592L98.1026 42.9785C98.0615 43.0117 98.0278 43.0529 98.0034 43.0998C97.979 43.1466 97.9645 43.198 97.9609 43.2508C97.9572 43.3035 97.9645 43.3564 97.9822 43.4062C97.9999 43.4559 98.0277 43.5015 98.0638 43.54L98.0889 43.5667C98.121 43.6009 98.1596 43.6284 98.2023 43.6476C98.2451 43.6668 98.2912 43.6774 98.338 43.6786C98.3849 43.6799 98.4315 43.6719 98.4752 43.655C98.5189 43.6381 98.5589 43.6128 98.5928 43.5803L101.088 41.1158C101.497 41.5046 102.02 41.7521 102.58 41.8222C104.055 42.0077 105.404 40.9364 105.592 39.4294ZM102.671 41.0923C101.59 40.9564 100.826 39.9515 100.964 38.8476C101.102 37.7437 102.09 36.959 103.17 37.0949C104.251 37.2308 105.015 38.2358 104.877 39.3396C104.739 40.4435 103.751 41.2282 102.671 41.0923Z" fill="#E0E0E0"/>
</g>
<path d="M15.2326 77.701L16.7117 113.595C16.7616 114.805 18.446 115.765 20.4885 115.749L63.9144 115.394C65.956 115.378 67.5948 114.391 67.5897 113.181L67.4388 76.9508C67.4336 75.7109 65.707 74.7166 63.6151 74.7489L18.861 75.4398C16.8059 75.4715 15.1824 76.4833 15.2326 77.701Z" fill="#F7F7F7"/>
<path d="M75.9394 45.9356L103.162 45.6035C105.949 45.5695 108.259 46.4771 108.282 47.6148L108.745 70.1786C108.768 71.3156 106.498 72.2386 103.712 72.2246L75.3717 72.0827C73.7772 72.0747 72.4843 71.553 72.4466 70.9023L71.1176 48.0119C71.0529 46.8965 73.2068 45.9689 75.9394 45.9356Z" fill="#F7F7F7"/>
<path d="M22.0653 45.419L60.8047 45.0768C64.7699 45.0418 68.0575 45.9771 68.0907 47.1497L68.7485 70.4039C68.7816 71.5758 65.5512 72.527 61.587 72.5126L21.2574 72.3663C18.9884 72.3581 17.1485 71.8204 17.0948 71.1498L15.2037 47.5589C15.1116 46.4093 18.1767 45.4534 22.0653 45.419Z" fill="#F7F7F7"/>
<path d="M75.8754 74.9913L103.099 74.4643C105.885 74.4104 108.195 75.8507 108.219 77.6563L108.681 113.465C108.704 115.269 106.434 116.734 103.648 116.712L75.3077 116.487C73.7133 116.474 72.4204 115.646 72.3826 114.613L71.0537 78.2865C70.9889 76.5162 73.1429 75.0442 75.8754 74.9913Z" fill="#F7F7F7"/>
<path d="M115.84 36.0649L137.078 35.722C139.252 35.6869 141.055 36.6243 141.073 37.7995L141.433 61.106C141.452 62.2804 139.681 63.2337 137.507 63.2193L115.397 63.0727C114.153 63.0645 113.144 62.5256 113.115 61.8535L112.078 38.2097C112.028 37.0574 113.708 36.0994 115.84 36.0649Z" fill="#F7F7F7"/>
<path d="M116.362 66.3486L137.6 66.0795C139.774 66.052 141.577 66.7875 141.595 67.7096L141.955 85.9964C141.974 86.9179 140.203 87.6659 138.029 87.6546L115.919 87.5396C114.675 87.5331 113.666 87.1103 113.637 86.5829L112.6 68.0314C112.55 67.1274 114.23 66.3756 116.362 66.3486Z" fill="#F7F7F7"/>
<path opacity="0.37" d="M117.375 91.7395L138.613 91.4297C140.787 91.398 142.589 92.2447 142.607 93.3062L142.968 114.357C142.986 115.418 141.215 116.279 139.042 116.266L116.932 116.133C115.688 116.126 114.679 115.639 114.65 115.032L113.613 93.6767C113.562 92.636 115.243 91.7706 117.375 91.7395Z" fill="white"/>
<path d="M109.862 118.49L108.892 56.4283C108.881 55.7474 109.536 55.1906 110.347 55.1906C111.659 55.1906 112.723 54.2978 112.723 53.1964V38.037C112.723 37.0719 113.675 36.2987 114.825 36.3307L120.058 36.4766C121.346 36.5125 122.375 37.3888 122.399 38.4705L124.189 118.49H109.862Z" fill="#F2C94C"/>
<path d="M129.424 61.5638C129.444 61.5529 129.461 61.5382 129.475 61.5207C129.488 61.5032 129.498 61.4831 129.504 61.4617C129.51 61.4402 129.512 61.4178 129.509 61.3957C129.507 61.3736 129.5 61.3522 129.489 61.3328L129.256 60.9185L129.238 60.9285L127.867 58.6975C127.843 58.6592 127.805 58.6318 127.762 58.6214C127.718 58.611 127.672 58.6185 127.634 58.6421L127.374 58.8027C127.355 58.8144 127.339 58.8297 127.326 58.8477C127.313 58.8658 127.304 58.8862 127.299 58.9079C127.293 58.9296 127.293 58.952 127.296 58.974C127.3 58.996 127.307 59.0171 127.319 59.0361L128.585 61.0955C128.597 61.115 128.605 61.1366 128.608 61.1592C128.612 61.1818 128.611 61.2048 128.605 61.2269C128.599 61.249 128.589 61.2697 128.575 61.2878C128.561 61.3059 128.544 61.3211 128.524 61.3323L118.575 66.9595C118.556 66.9704 118.539 66.9851 118.525 67.0026C118.512 67.0201 118.501 67.0402 118.495 67.0617C118.49 67.0831 118.488 67.1055 118.49 67.1277C118.493 67.1498 118.5 67.1711 118.511 67.1905L118.744 67.6048L118.747 67.603L121.98 73.3531C122.002 73.3923 122.039 73.4211 122.082 73.4332C122.125 73.4453 122.172 73.4396 122.211 73.4175L122.476 73.2672C122.496 73.2563 122.513 73.2416 122.526 73.2241C122.54 73.2066 122.55 73.1865 122.556 73.1651C122.562 73.1436 122.564 73.1212 122.561 73.0991C122.559 73.077 122.552 73.0556 122.541 73.0362L119.391 67.4337C119.38 67.4143 119.373 67.3929 119.37 67.3708C119.368 67.3487 119.369 67.3263 119.375 67.3049C119.381 67.2834 119.391 67.2633 119.405 67.2458C119.419 67.2283 119.436 67.2136 119.455 67.2027L129.424 61.5638Z" fill="#E0E0E0"/>
<path d="M125.362 53.8449L104.743 65.5076L107.387 70.2109L128.006 58.5481L125.362 53.8449Z" fill="#F7F7F7"/>
<path d="M143.351 113.24L141.826 114.014C141.816 114.019 141.806 114.022 141.795 114.022C141.785 114.023 141.774 114.022 141.764 114.019C141.754 114.015 141.744 114.01 141.736 114.003C141.728 113.996 141.721 113.988 141.717 113.978L121.025 72.9801C121.02 72.9706 121.017 72.9602 121.016 72.9495C121.016 72.9389 121.017 72.9282 121.02 72.918C121.023 72.9078 121.029 72.8984 121.036 72.8903C121.043 72.8822 121.051 72.8756 121.061 72.8707L122.586 72.0964C122.595 72.0915 122.606 72.0886 122.616 72.0878C122.627 72.087 122.638 72.0883 122.648 72.0916C122.658 72.095 122.667 72.1003 122.675 72.1072C122.683 72.1142 122.69 72.1227 122.695 72.1322L143.387 113.13C143.391 113.14 143.394 113.15 143.395 113.161C143.396 113.171 143.395 113.182 143.391 113.192C143.388 113.202 143.383 113.212 143.376 113.22C143.369 113.228 143.36 113.235 143.351 113.24Z" fill="#F7F7F7"/>
<path d="M127.871 58.6479C128.355 58.3741 128.151 57.0914 127.415 55.7829C126.68 54.4743 125.691 53.6354 125.207 53.9092C124.723 54.1829 124.927 55.4656 125.663 56.7742C126.398 58.0827 127.387 58.9216 127.871 58.6479Z" fill="#E0E0E0"/>
<path d="M129.597 132.423C125.583 133.768 121.683 133.769 117.922 132.54C117.459 132.388 117.055 132.094 116.768 131.698C116.482 131.303 116.328 130.826 116.328 130.338V111.862C120.949 112.883 125.793 112.934 130.896 111.862V130.624C130.895 131.022 130.769 131.411 130.536 131.734C130.303 132.056 129.974 132.298 129.597 132.423Z" fill="#F7F7F7"/>
<path d="M123.612 113.183C127.635 113.183 130.896 112.526 130.896 111.715C130.896 110.904 127.635 110.247 123.612 110.247C119.588 110.247 116.327 110.904 116.327 111.715C116.327 112.526 119.588 113.183 123.612 113.183Z" fill="#7D97F4"/>
<path d="M130.896 126.088C126.04 127.782 121.184 127.782 116.328 126.088V118.718C121.228 119.93 126.086 119.991 130.896 118.718V126.088Z" fill="#F2C94C"/>
<path d="M117.108 113.542C117.264 114.127 117.93 114.521 118.516 114.376C118.927 114.275 119.278 113.952 119.702 113.945C120.182 113.937 120.566 114.334 120.846 114.726C121.356 115.439 121.742 116.235 121.986 117.078C122.067 117.358 122.139 117.655 122.335 117.871C122.755 118.332 123.548 118.184 124.015 117.771C124.482 117.358 124.735 116.761 125.082 116.243C125.428 115.724 125.961 115.24 126.582 115.278C126.79 115.291 126.992 115.362 127.2 115.371C127.431 115.375 127.658 115.304 127.846 115.169C128.034 115.033 128.173 114.84 128.242 114.618C128.281 114.482 128.293 114.335 128.363 114.212C128.574 113.842 129.13 113.807 129.418 113.507C129.601 113.317 129.662 113.041 129.875 112.854C129.955 112.784 130.508 112.555 130.519 112.52C130.616 112.222 130.308 111.953 130.022 111.825C128.347 111.077 126.433 111.823 124.617 112.078C122.833 112.328 121.126 111.92 119.36 111.936C118.386 111.944 116.745 112.18 117.108 113.542Z" fill="#F2C94C"/>
<path d="M123.696 113.225C127.719 113.225 130.98 112.568 130.98 111.757C130.98 110.946 127.719 110.289 123.696 110.289C119.672 110.289 116.411 110.946 116.411 111.757C116.411 112.568 119.672 113.225 123.696 113.225Z" fill="#F7F7F7"/>
<path d="M123.502 112.645C126.813 112.645 129.498 112.247 129.498 111.757C129.498 111.266 126.813 110.869 123.502 110.869C120.19 110.869 117.505 111.266 117.505 111.757C117.505 112.247 120.19 112.645 123.502 112.645Z" fill="#F2C94C"/>
<path d="M44.261 130.98H4.88254C4.27953 130.98 3.70122 130.739 3.27482 130.312C2.84843 129.884 2.60889 129.304 2.60889 128.699V90.5631C2.60889 89.9593 2.8476 89.3802 3.27267 88.9527C3.69774 88.5252 4.27448 88.2842 4.87643 88.2826L44.5698 88.1757C44.8699 88.1749 45.1672 88.2337 45.4446 88.3487C45.7219 88.4637 45.9738 88.6327 46.1857 88.8458C46.3977 89.0589 46.5654 89.312 46.6794 89.5905C46.7933 89.869 46.8511 90.1673 46.8495 90.4684L46.5346 128.711C46.5314 129.314 46.2904 129.891 45.8644 130.316C45.4384 130.741 44.8619 130.98 44.261 130.98Z" fill="black"/>
<path d="M42.3316 91.0947L7.12095 91.3122C6.5097 91.3159 5.92494 91.5629 5.49505 91.9987C5.06517 92.4346 4.82531 93.0238 4.82815 93.6368L5.07384 125.711C5.07664 126.316 5.31519 126.895 5.73847 127.326C6.16176 127.756 6.73615 128.003 7.33878 128.014L41.5504 128.64C41.8541 128.646 42.1559 128.591 42.4385 128.479C42.7212 128.368 42.979 128.201 43.1972 127.989C43.4155 127.777 43.5898 127.524 43.7103 127.244C43.8308 126.965 43.895 126.664 43.8992 126.359L44.6527 93.4411C44.657 93.1333 44.6 92.8278 44.4851 92.5423C44.3702 92.2569 44.1997 91.9974 43.9836 91.7789C43.7674 91.5604 43.51 91.3873 43.2264 91.2698C42.9427 91.1524 42.6385 91.0928 42.3316 91.0947Z" fill="#F7F7F7"/>
<path opacity="0.6" d="M40.2089 93.377H13.0793C12.6982 93.377 12.3892 93.687 12.3892 94.0693V94.3128C12.3892 94.6952 12.6982 95.0051 13.0793 95.0051H40.2089C40.5901 95.0051 40.8991 94.6952 40.8991 94.3128V94.0693C40.8991 93.687 40.5901 93.377 40.2089 93.377Z" fill="#E0E0E0"/>
<path opacity="0.6" d="M37.8732 97.1319C37.8637 97.3066 37.7887 97.4712 37.6632 97.5926C37.5377 97.7141 37.371 97.7834 37.1966 97.7866L13.4703 98.2203C13.3786 98.222 13.2876 98.2053 13.2024 98.1713C13.1172 98.1372 13.0396 98.0865 12.9742 98.0221C12.9088 97.9577 12.8568 97.8808 12.8213 97.796C12.7858 97.7112 12.7676 97.6201 12.7676 97.5282V97.4716C12.7676 97.2899 12.8388 97.1155 12.9659 96.986C13.0929 96.8565 13.2657 96.7824 13.4468 96.7795L37.1731 96.4023C37.2677 96.4008 37.3617 96.4188 37.4492 96.4553C37.5366 96.4918 37.6156 96.546 37.6813 96.6144C37.7469 96.6828 37.7979 96.7641 37.8309 96.8531C37.8639 96.9422 37.8783 97.0371 37.8732 97.1319Z" fill="#E0E0E0"/>
<path d="M40.2944 126.826C40.2864 126.826 40.2786 126.826 40.2708 126.826L8.17964 126.44C7.92028 126.437 7.6641 126.382 7.42586 126.279C7.18762 126.176 6.97202 126.027 6.79148 125.84C6.61093 125.654 6.46901 125.433 6.37387 125.191C6.27874 124.949 6.23228 124.69 6.23717 124.43L7.06303 101.781C7.06781 101.522 7.12351 101.268 7.22693 101.031C7.33035 100.795 7.47943 100.581 7.66558 100.403C8.04184 100.04 8.54585 99.8424 9.06732 99.852L41.1024 100.477C41.623 100.488 42.118 100.706 42.4793 101.082C42.8406 101.458 43.0387 101.962 43.0304 102.484C43.0302 102.486 43.0302 102.488 43.0302 102.49L42.2602 124.894C42.2488 125.41 42.0367 125.901 41.6694 126.262C41.3021 126.623 40.8087 126.825 40.2944 126.826ZM9.02831 100.508C8.68475 100.508 8.35496 100.643 8.10979 100.885C7.86463 101.126 7.72365 101.454 7.71714 101.799L6.89131 124.448C6.88879 124.622 6.92034 124.793 6.98416 124.954C7.04799 125.115 7.14282 125.262 7.26325 125.386C7.38367 125.51 7.5273 125.609 7.68592 125.677C7.84454 125.745 8.01503 125.781 8.18762 125.784L40.2786 126.17C40.2839 126.17 40.2892 126.17 40.2944 126.17C40.6381 126.169 40.9678 126.033 41.2129 125.792C41.4581 125.55 41.5992 125.222 41.6061 124.877L42.3762 102.47C42.3811 102.122 42.2485 101.786 42.0075 101.536C41.7665 101.285 41.4366 101.141 41.0896 101.133L9.05454 100.508C9.04575 100.508 9.03695 100.508 9.02831 100.508Z" fill="#E0E0E0"/>
<path d="M42.2872 104.877H7.33776C7.29469 104.877 7.252 104.869 7.21216 104.852C7.17231 104.836 7.13609 104.812 7.10557 104.781C7.07505 104.751 7.05083 104.715 7.03431 104.675C7.01778 104.635 7.00928 104.592 7.00928 104.549C7.00928 104.506 7.01778 104.463 7.03431 104.423C7.05083 104.383 7.07505 104.347 7.10557 104.316C7.13609 104.286 7.17231 104.262 7.21216 104.245C7.252 104.229 7.29469 104.221 7.33776 104.221H42.2872C42.3737 104.221 42.4566 104.256 42.5177 104.317C42.5787 104.379 42.613 104.462 42.613 104.549C42.613 104.636 42.5787 104.719 42.5177 104.781C42.4566 104.842 42.3737 104.877 42.2872 104.877Z" fill="#E0E0E0"/>
<path d="M37.641 33.2869C37.6683 33.3387 37.7109 33.3806 37.763 33.4069C37.8152 33.4331 37.8741 33.4424 37.9318 33.4335L41.3026 32.9094C42.3622 34.1324 43.6136 35.1738 45.0075 35.9928L45.1182 39.4101C45.1201 39.4685 45.1401 39.525 45.1755 39.5715C45.2109 39.618 45.2598 39.6523 45.3156 39.6695L49.2249 40.8807C49.2806 40.8979 49.3403 40.8973 49.3957 40.8789C49.4511 40.8605 49.4993 40.8253 49.5338 40.7781L51.5467 38.0186C53.1582 38.1307 54.7771 37.9785 56.3397 37.5679L58.8288 39.9074C58.8714 39.9474 58.9253 39.973 58.9831 39.9808C59.0409 39.9886 59.0997 39.9781 59.1513 39.9508L62.7694 38.0346C62.821 38.0073 62.8628 37.9645 62.889 37.9122C62.9152 37.8599 62.9244 37.8008 62.9155 37.743L62.3931 34.362C63.6123 33.2992 64.6506 32.0441 65.4671 30.646L68.8742 30.535C68.9325 30.5331 68.9888 30.513 69.0352 30.4775C69.0815 30.442 69.1157 30.3929 69.1329 30.337L70.3404 26.4159C70.3576 26.36 70.357 26.3001 70.3387 26.2446C70.3203 26.189 70.2852 26.1406 70.2381 26.1061L67.4869 24.0872C67.5987 22.4709 67.4469 20.8471 67.0376 19.2797L69.37 16.7832C69.4099 16.7405 69.4355 16.6864 69.4432 16.6284C69.451 16.5704 69.4405 16.5115 69.4133 16.4597L67.5028 12.8307C67.4756 12.7789 67.433 12.737 67.3808 12.7108C67.3287 12.6845 67.2697 12.6752 67.2121 12.6842L63.8412 13.2082C62.7816 11.9852 61.5302 10.9438 60.1364 10.1249L60.0257 6.70748C60.0238 6.64902 60.0037 6.59261 59.9684 6.54611C59.933 6.49962 59.884 6.46534 59.8283 6.44807L55.9189 5.23694C55.8632 5.21968 55.8035 5.22029 55.7481 5.23868C55.6928 5.25707 55.6445 5.29234 55.6101 5.33956L53.5972 8.09903C51.9857 7.98689 50.3668 8.13911 48.8041 8.54968L46.3151 6.21032C46.2725 6.17029 46.2186 6.14459 46.1607 6.13679C46.1029 6.129 46.0441 6.1395 45.9926 6.16684L42.3745 8.08307C42.3229 8.11039 42.2811 8.15317 42.2549 8.20544C42.2287 8.25771 42.2194 8.31688 42.2283 8.3747L42.7508 11.7556C41.5315 12.8184 40.4932 14.0736 39.6767 15.4716L36.2695 15.5827C36.2113 15.5846 36.155 15.6047 36.1087 15.6402C36.0623 15.6757 36.0282 15.7248 36.011 15.7807L34.8035 19.7017C34.7863 19.7576 34.7869 19.8175 34.8052 19.8731C34.8235 19.9286 34.8587 19.977 34.9057 20.0116L37.657 22.0305C37.5452 23.6468 37.697 25.2706 38.1062 26.8379L35.7739 29.3345C35.734 29.3772 35.7084 29.4313 35.7006 29.4893C35.6928 29.5473 35.7033 29.6062 35.7305 29.658L37.641 33.2869Z" fill="black"/>
<path d="M55.2293 26.0127L55.2265 26.0152C54.4445 26.7221 53.4145 27.0886 52.3632 27.0339C51.3119 26.9793 50.3252 26.508 49.6202 25.7238C48.9153 24.9396 48.5497 23.9067 48.6039 22.8521C48.6581 21.7976 49.1277 20.8079 49.9094 20.1006C50.6911 19.3933 51.7209 19.0264 52.7722 19.0805C53.8236 19.1347 54.8105 19.6054 55.5158 20.3893C56.2212 21.1732 56.5872 22.206 56.5335 23.2605C56.4798 24.315 56.0107 25.305 55.2293 26.0127ZM50.3618 20.6015C49.7124 21.1894 49.3223 22.0118 49.2773 22.8881C49.2323 23.7643 49.536 24.6226 50.1217 25.2743C50.7074 25.9261 51.5271 26.3178 52.4007 26.3636C53.2743 26.4093 54.1302 26.1053 54.7803 25.5182L54.7827 25.5161C55.4316 24.9281 55.8212 24.1058 55.866 23.2298C55.9108 22.3539 55.6071 21.4959 55.0216 20.8444C54.4361 20.1928 53.6167 19.8011 52.7434 19.7552C51.8701 19.7092 51.0143 20.0129 50.3641 20.5994L50.3618 20.6015Z" fill="#F7F7F7"/>
<path d="M59.4935 30.5995C57.9057 32.0399 55.907 32.9436 53.7795 33.1829C51.652 33.4223 49.5032 32.9852 47.6368 31.9335L47.9634 31.3506C48.5557 31.6838 49.1814 31.9531 49.8303 32.1539C53.7787 33.377 57.9291 31.8905 60.2785 28.7517C60.283 28.7459 60.2873 28.74 60.2917 28.7342C60.2963 28.7281 60.3006 28.7224 60.3052 28.7162C61.3775 27.2666 62.0194 25.5424 62.1567 23.7426C62.2941 21.9427 61.9212 20.1406 61.0813 18.5442C60.7099 17.8373 60.2522 17.1796 59.7188 16.586C58.5702 15.3115 57.0987 14.3729 55.4608 13.8699C50.435 12.313 45.0831 15.1474 43.5309 20.1882C43.0207 21.841 42.9675 23.6017 43.377 25.2825L42.7295 25.4416C42.2912 23.6432 42.348 21.7593 42.8938 19.9907C44.5549 14.598 50.2804 11.5651 55.6575 13.231C57.4099 13.769 58.9843 14.7733 60.2132 16.1369C60.7838 16.7719 61.2734 17.4756 61.6707 18.2319C62.7301 20.2429 63.0911 22.5505 62.6968 24.7902C62.3025 27.03 61.1754 29.0741 59.4935 30.5995L59.4935 30.5995Z" fill="#F7F7F7"/>
<path d="M72.7451 34.0153C72.725 34.0331 72.7109 34.0569 72.7048 34.0831C72.6988 34.1094 72.701 34.1369 72.7113 34.1618L73.3122 35.6193C72.8814 36.2285 72.5525 36.9041 72.3384 37.6194L70.8243 38.0411C70.7984 38.0483 70.7754 38.0635 70.7585 38.0844C70.7415 38.1054 70.7316 38.1311 70.7299 38.158L70.6145 40.0463C70.6129 40.0732 70.6196 40.1 70.6339 40.1228C70.6481 40.1457 70.6691 40.1636 70.6939 40.1739L72.1454 40.7779C72.2707 41.5141 72.5149 42.225 72.8684 42.8824L72.0945 44.2553C72.0813 44.2788 72.0757 44.3058 72.0785 44.3326C72.0813 44.3595 72.0924 44.3847 72.1102 44.4049L73.3598 45.8219C73.3776 45.8421 73.4013 45.8563 73.4275 45.8623C73.4537 45.8684 73.4811 45.8662 73.5059 45.8558L74.959 45.2531C75.5664 45.6852 76.24 46.0151 76.9532 46.2298L77.3736 47.7485C77.3808 47.7744 77.3959 47.7975 77.4168 47.8145C77.4377 47.8315 77.4634 47.8415 77.4902 47.8431L79.3728 47.9589C79.3997 47.9605 79.4263 47.9537 79.4491 47.9394C79.472 47.9252 79.4897 47.9041 79.5 47.8792L80.1022 46.4233C80.8363 46.2977 81.545 46.0527 82.2004 45.6982L83.5692 46.4745C83.5926 46.4877 83.6196 46.4933 83.6463 46.4905C83.6731 46.4877 83.6982 46.4766 83.7184 46.4587L85.1312 45.2054C85.1513 45.1875 85.1654 45.1638 85.1715 45.1375C85.1775 45.1112 85.1752 45.0837 85.165 45.0588L84.564 43.6013C84.9949 42.9921 85.3238 42.3166 85.5378 41.6012L87.052 41.1795C87.0779 41.1723 87.1009 41.1571 87.1178 41.1362C87.1347 41.1152 87.1447 41.0895 87.1464 41.0626L87.2618 39.1743C87.2634 39.1474 87.2566 39.1206 87.2424 39.0977C87.2281 39.0749 87.2071 39.057 87.1823 39.0467L85.7309 38.4427C85.6056 37.7065 85.3614 36.9957 85.0079 36.3383L85.7818 34.9653C85.795 34.9419 85.8006 34.9148 85.7978 34.888C85.795 34.8612 85.7839 34.8359 85.7661 34.8157L84.5165 33.3987C84.4987 33.3785 84.475 33.3644 84.4488 33.3583C84.4226 33.3522 84.3952 33.3545 84.3704 33.3648L82.9173 33.9675C82.3099 33.5354 81.6364 33.2055 80.9231 32.9909L80.5027 31.4721C80.4955 31.4462 80.4804 31.4231 80.4595 31.4061C80.4386 31.3891 80.4129 31.3791 80.3861 31.3775L78.5035 31.2617C78.4767 31.2601 78.45 31.2669 78.4272 31.2812C78.4044 31.2954 78.3866 31.3165 78.3763 31.3414L77.7741 32.7973C77.0401 32.923 76.3314 33.1679 75.6759 33.5224L74.3071 32.7462C74.2837 32.7329 74.2567 32.7273 74.23 32.7301C74.2032 32.7329 74.178 32.7441 74.1579 32.7619L72.7451 34.0153Z" fill="black"/>
<path d="M77.8487 41.2129L77.8472 41.2119C77.4244 40.9219 77.1337 40.4753 77.0391 39.9704C76.9445 39.4655 77.0537 38.9435 77.3427 38.5194C77.6318 38.0952 78.0769 37.8036 78.5803 37.7086C79.0837 37.6136 79.6041 37.723 80.027 38.0128C80.45 38.3026 80.7408 38.749 80.8357 39.2539C80.9305 39.7587 80.8215 40.2807 80.5327 40.705C80.2439 41.1293 79.7989 41.4212 79.2956 41.5164C78.7922 41.6117 78.2718 41.5025 77.8487 41.2129ZM79.7352 38.4376C79.4252 38.226 79.0441 38.1465 78.6756 38.2165C78.3071 38.2865 77.9814 38.5004 77.77 38.8111C77.5586 39.1218 77.4787 39.5039 77.548 39.8736C77.6173 40.2433 77.83 40.5703 78.1394 40.7828L78.1406 40.7836C78.4507 40.9957 78.8322 41.0755 79.201 41.0055C79.5698 40.9355 79.8959 40.7214 80.1073 40.4104C80.3188 40.0993 80.3984 39.7167 80.3286 39.3467C80.2588 38.9768 80.0454 38.6498 79.7353 38.4376H79.7352Z" fill="#F7F7F7"/>
<path d="M76.2647 43.628C75.4468 43.0702 74.82 42.2733 74.4696 41.3455C74.1191 40.4178 74.062 39.4044 74.3061 38.443C74.3156 38.4053 74.3256 38.3677 74.3362 38.3303L74.8349 38.4707C74.7526 38.7658 74.7017 39.0689 74.6831 39.3748C74.6626 39.7077 74.6807 40.0419 74.7371 40.3707L74.7376 40.3733C74.7378 40.3748 74.7382 40.3765 74.7384 40.3781C74.862 41.0814 75.1576 41.743 75.5986 42.3037C76.0396 42.8643 76.6124 43.3065 77.2656 43.5906C77.6123 43.7412 77.9773 43.8448 78.3512 43.8987C78.3635 43.9006 78.3756 43.9023 78.3878 43.9039C78.3978 43.9052 78.4078 43.9065 78.4177 43.9078C78.4432 43.9111 78.4687 43.9142 78.4944 43.917C78.564 43.9246 78.634 43.9308 78.7046 43.935C79.2673 43.9712 79.8316 43.895 80.3648 43.711C80.898 43.5269 81.3895 43.2386 81.8108 42.8627C82.0794 42.6248 82.3175 42.3542 82.5195 42.0573C83.0555 41.2647 83.3128 40.3155 83.2507 39.3598C83.1886 38.4041 82.8107 37.4964 82.1767 36.7803C81.5427 36.0641 80.6888 35.5804 79.7499 35.4055C78.8111 35.2306 77.841 35.3746 76.9929 35.8147L76.7543 35.3535C77.5092 34.9607 78.3543 34.7757 79.2036 34.8171C80.053 34.8586 80.8762 35.125 81.5895 35.5894C82.3028 36.0538 82.8806 36.6995 83.2641 37.4608C83.6476 38.2221 83.8231 39.0717 83.7727 39.9231C83.7223 40.7745 83.4479 41.5973 82.9773 42.3077C82.5067 43.0182 81.8568 43.5908 81.0938 43.9673C80.3308 44.3438 79.4819 44.5108 78.6336 44.4512C77.7853 44.3916 76.968 44.1076 76.2647 43.628L76.2647 43.628Z" fill="#F7F7F7"/>
<path d="M97.2361 7.5849C97.2172 7.54918 97.1876 7.52026 97.1515 7.50218C97.1155 7.4841 97.0747 7.47776 97.0348 7.48404L94.7052 7.85186C93.9706 7.00809 93.1037 6.29011 92.1388 5.7262L92.0566 3.36375C92.0552 3.32332 92.0413 3.28435 92.0168 3.25226C91.9922 3.22016 91.9583 3.19654 91.9197 3.18469L89.215 2.35373C89.1765 2.34189 89.1352 2.34241 89.0969 2.3552C89.0587 2.368 89.0254 2.39244 89.0016 2.42513L87.6144 4.33624C86.5001 4.26138 85.3811 4.36927 84.3014 4.65565L82.5767 3.04232C82.5472 3.01474 82.5099 2.99708 82.4699 2.99178C82.4299 2.98649 82.3893 2.99383 82.3537 3.01278L79.8553 4.34353C79.8197 4.36249 79.7909 4.39213 79.7728 4.42832C79.7548 4.46451 79.7485 4.50544 79.7548 4.5454L80.1215 6.88205C79.2802 7.61884 78.5644 8.48831 78.0022 9.4562L75.6468 9.53855C75.6065 9.53995 75.5677 9.55393 75.5357 9.57855C75.5037 9.60316 75.4801 9.63717 75.4683 9.67584L74.6398 12.3888C74.628 12.4274 74.6285 12.4689 74.6413 12.5072C74.6541 12.5456 74.6785 12.579 74.7111 12.6028L76.6165 13.9941C76.5418 15.1118 76.6493 16.2342 76.9349 17.3171L75.3263 19.047C75.2989 19.0766 75.2812 19.114 75.276 19.1541C75.2707 19.1942 75.278 19.235 75.2969 19.2707L76.6237 21.7765C76.6426 21.8123 76.6722 21.8412 76.7082 21.8593C76.7443 21.8774 76.7851 21.8837 76.825 21.8774L79.1546 21.5096C79.8892 22.3534 80.756 23.0714 81.721 23.6353L81.8031 25.9978C81.8045 26.0382 81.8185 26.0771 81.843 26.1092C81.8675 26.1413 81.9014 26.1649 81.94 26.1768L84.6448 27.0078C84.6834 27.0196 84.7246 27.0191 84.7629 27.0063C84.8011 26.9935 84.8344 26.969 84.8582 26.9363L86.2453 25.0252C87.3596 25.1001 88.4787 24.9922 89.5584 24.7058L91.283 26.3191C91.3125 26.3467 91.3499 26.3644 91.3898 26.3697C91.4298 26.375 91.4705 26.3676 91.5061 26.3486L94.0044 25.0179C94.04 24.9989 94.0689 24.9693 94.0869 24.9331C94.1049 24.8969 94.1112 24.856 94.105 24.8161L93.7383 22.4794C94.5795 21.7426 95.2953 20.8731 95.8575 19.9052L98.213 19.8229C98.2533 19.8215 98.2921 19.8075 98.3241 19.7829C98.3561 19.7583 98.3796 19.7243 98.3914 19.6856L99.2199 16.9727C99.2317 16.9341 99.2312 16.8927 99.2185 16.8543C99.2057 16.8159 99.1813 16.7825 99.1487 16.7587L97.2434 15.3674C97.318 14.2497 97.2104 13.1273 96.9249 12.0444L98.5334 10.3145C98.5609 10.2849 98.5785 10.2475 98.5838 10.2074C98.5891 10.1673 98.5818 10.1265 98.5628 10.0908L97.2361 7.5849Z" fill="black"/>
<path d="M85.4902 17.0494C85.2637 16.9102 85.0582 16.739 84.8802 16.5412C84.4154 16.0235 84.1634 15.3484 84.1747 14.6519C84.186 13.9553 84.4598 13.2888 84.941 12.7865C85.4223 12.2841 86.0753 11.9832 86.7688 11.9441C87.4623 11.905 88.1448 12.1307 88.6792 12.5758C89.2135 13.021 89.56 13.6525 89.649 14.3434C89.738 15.0343 89.5629 15.7334 89.1589 16.3001C88.755 16.8669 88.152 17.2592 87.4714 17.3982C86.7908 17.5372 86.0829 17.4126 85.4902 17.0494ZM88.1071 12.7456C87.7854 12.5487 87.4195 12.4361 87.0431 12.4181C86.5212 12.3921 86.0066 12.5483 85.5867 12.8602C85.1668 13.1721 84.8678 13.6203 84.7405 14.1286C84.6132 14.6368 84.6655 15.1736 84.8886 15.6475C85.1116 16.1214 85.4916 16.503 85.9637 16.7274C86.4359 16.9518 86.971 17.0051 87.4779 16.8781C87.9848 16.7512 88.4322 16.4518 88.7437 16.0312C89.0553 15.6105 89.2118 15.0945 89.1865 14.5711C89.1613 14.0476 88.9559 13.5492 88.6053 13.1606C88.4599 12.9991 88.2921 12.8594 88.1071 12.7456ZM87.0557 12.1645L87.0571 12.1654L87.0557 12.1645Z" fill="#F7F7F7"/>
<path d="M83.1861 20.7715C80.4965 19.1213 79.1459 15.7941 80.1109 12.6341C80.2845 12.064 80.5292 11.5182 80.839 11.0096C82.484 8.31152 85.8017 6.95652 88.9527 7.92439C89.0093 7.94183 89.0657 7.95997 89.1219 7.9788C89.4995 8.10508 89.8659 8.26287 90.2173 8.45051C90.2581 8.4723 90.2987 8.49449 90.339 8.51708L90.0921 8.96033C89.6834 8.73173 89.2518 8.54723 88.8044 8.40992C88.8002 8.40853 88.7959 8.40726 88.7917 8.406C87.4043 7.98351 85.9166 8.0332 84.5603 8.54733C83.204 9.06145 82.0554 10.0111 81.2934 11.2484C80.5314 12.4856 80.1989 13.9409 80.3477 15.3875C80.4964 16.8341 81.1181 18.1907 82.1158 19.2459C83.1135 20.3011 84.4312 20.9957 85.8635 21.2213C87.2959 21.447 88.7624 21.1911 90.0346 20.4935C91.3068 19.7958 92.3132 18.6957 92.8969 17.3645C93.4807 16.0333 93.609 14.5459 93.2619 13.1339L93.7532 13.0118C93.9768 13.9233 94.0183 14.8703 93.8753 15.798C93.7322 16.7257 93.4075 17.6158 92.9198 18.417C91.2749 21.1151 87.9572 22.4701 84.8063 21.5023C84.2377 21.3279 83.6934 21.0824 83.1861 20.7715Z" fill="#F7F7F7"/>
<path d="M10.9301 51.915L9.40633 52.3013C6.79149 52.9642 5.03306 54.9351 5.47871 56.7035L6.00851 58.8058C6.45416 60.5742 8.93511 61.4703 11.5499 60.8074L13.0738 60.4211C13.1747 60.3955 13.275 60.3677 13.3747 60.3378L58.0569 46.9283L56.9027 42.3481L11.2344 51.8448C11.1326 51.866 11.0311 51.8894 10.9301 51.915ZM11.5863 54.0132C13.555 53.5141 15.3906 54.0606 15.6863 55.2339C15.9819 56.4072 14.6257 57.763 12.6571 58.2621C10.6884 58.7612 8.85279 58.2146 8.55713 57.0413C8.26146 55.8681 9.6177 54.5124 11.5864 54.0132L11.5863 54.0132Z" fill="#F7F7F7"/>
<path d="M71.7595 36.1246L62.9177 38.3662C62.6071 38.445 62.3187 38.5942 62.0746 38.8024C61.8306 39.0106 61.6374 39.2722 61.5101 39.5671L60.1872 42.6307C60.0036 43.0559 59.9654 43.5302 60.0786 43.9795C60.1918 44.4287 60.4501 44.8278 60.8131 45.1145L63.4285 47.1795C63.6802 47.3783 63.9741 47.5164 64.2875 47.5833C64.6009 47.6502 64.9253 47.644 65.236 47.5653L74.0778 45.3237C75.4114 44.9855 76.5446 46.3817 75.9149 47.6084C74.4086 50.543 71.6446 52.8642 68.1267 53.7561C61.7681 55.3681 56.1409 51.5041 54.5949 45.3697C53.049 39.2353 56.1698 33.1534 62.5283 31.5413C66.0463 30.6495 69.5779 31.3745 72.2936 33.2388C73.4288 34.018 73.0932 35.7865 71.7595 36.1246Z" fill="#F7F7F7"/>
<path d="M71.97 36.9604L63.1282 39.202C62.8176 39.2807 62.5292 39.43 62.2851 39.6382C62.0411 39.8464 61.8479 40.108 61.7206 40.4029L60.3977 43.4665C60.2141 43.8917 60.1759 44.3659 60.2891 44.8152C60.4023 45.2645 60.6606 45.6636 61.0236 45.9502L63.639 48.0153C63.8907 48.214 64.1846 48.3522 64.498 48.4191C64.8114 48.486 65.1359 48.4798 65.4465 48.401L74.2883 46.1594C75.6219 45.8213 76.755 47.2174 76.1254 48.4441C74.619 51.3787 71.8552 53.6999 68.3372 54.5918C61.9786 56.2039 56.3513 52.3399 54.8054 46.2054C53.2594 40.071 56.3803 33.9891 62.7388 32.3771C66.2568 31.4852 69.7883 32.2103 72.5041 34.0745C73.6392 34.8537 73.3037 36.6222 71.97 36.9604Z" fill="#F2C94C"/>
<path d="M11.0986 52.5816L9.57479 52.9679C6.95995 53.6308 5.20151 55.6017 5.64717 57.3701L6.17697 59.4724C6.62262 61.2408 9.10357 62.1369 11.7184 61.474L13.2422 61.0877C13.3431 61.0621 13.4434 61.0344 13.5432 61.0044L58.2254 47.5949L57.0711 43.0147L11.4028 52.5114C11.301 52.5326 11.1996 52.556 11.0986 52.5816ZM11.7548 54.6799C13.7235 54.1808 15.5591 54.7273 15.8547 55.9005C16.1504 57.0738 14.7942 58.4296 12.8255 58.9287C10.8569 59.4278 9.02124 58.8812 8.72558 57.708C8.42992 56.5347 9.78616 55.179 11.7548 54.6799L11.7548 54.6799Z" fill="#F2C94C"/>
<path d="M113.945 141.015V142.62C113.945 143.031 113.735 143.37 113.457 143.407L88.499 145.675C88.3145 145.701 88.1271 145.697 87.9436 145.664C87.8956 145.656 87.8476 145.645 87.7995 145.633L70.4102 142.346C70.2253 142.298 70.0894 142.055 70.0894 141.773V140.078L88.5396 137.784L90.9146 136.657L93.276 136.998L94.6706 136.73L97.8578 137.66L113.945 141.015Z" fill="#F2C94C"/>
<path d="M113.945 141.015V142.62C113.945 143.03 113.735 143.37 113.457 143.407L88.5001 145.675C88.3159 145.701 88.1288 145.697 87.9458 145.664V137.021L90.9156 136.657L93.2765 136.998L94.6707 136.73L97.8578 137.66L113.945 141.015Z" fill="#F2C94C"/>
<path d="M94.6706 136.73L70.0894 140.003L87.8194 143.352C88.0347 143.408 88.2588 143.421 88.4791 143.391L113.945 141.015L94.6706 136.73Z" fill="#F7F7F7"/>
<path d="M103.681 139.686C103.681 140.86 99.9966 141.773 94.9109 142.01C93.627 142.069 92.2547 142.086 90.8308 142.053C83.8313 141.891 78.2069 140.585 78.2069 139.139C78.2054 139.104 78.2087 139.069 78.2166 139.035L78.2069 139.035L78.2359 138.965C78.2426 138.942 78.2514 138.92 78.262 138.898L79.8764 134.665L81.8258 129.558L84.5559 122.399L86.6454 116.92L89.2447 110.107C89.5699 109.253 90.1725 108.723 90.8239 108.723C90.9117 108.723 90.9992 108.732 91.0848 108.752C91.6345 108.872 92.1255 109.369 92.4076 110.108L95.0287 116.969L97.122 122.521L99.8841 129.823V129.825L101.867 135.071V135.072L101.899 135.076L103.55 139.339C103.621 139.453 103.681 139.569 103.681 139.686Z" fill="#F2C94C"/>
<path d="M101.899 135.075C100.306 135.61 97.7581 135.994 94.7081 136.137C93.4789 136.195 92.1785 136.214 90.8237 136.188C86.1207 136.099 82.0432 135.492 79.873 134.666L81.8244 129.558C84.1078 130.073 87.2902 130.421 90.8274 130.474C91.9712 130.491 93.0858 130.477 94.1472 130.434C96.3807 130.345 98.3501 130.13 99.9016 129.825L101.868 135.071V135.072L101.899 135.075Z" fill="#F7F7F7"/>
<path d="M97.1461 122.521C95.9297 122.653 94.5925 122.743 93.1738 122.783C92.4137 122.806 91.6308 122.813 90.831 122.805C88.7334 122.791 86.6382 122.656 84.5562 122.4L86.6456 116.92C87.9534 117.024 89.3618 117.083 90.831 117.091C91.35 117.094 91.8608 117.091 92.3634 117.081C93.2844 117.063 94.177 117.026 95.029 116.969L97.1461 122.521Z" fill="#F7F7F7"/>
<defs>
<filter id="filter0_d_457_439" x="96.96" y="36.3441" width="9.65381" height="9.33466" filterUnits="userSpaceOnUse" color-interpolation-filters="sRGB">
<feFlood flood-opacity="0" result="BackgroundImageFix"/>
<feColorMatrix in="SourceAlpha" type="matrix" values="0 0 0 0 0 0 0 0 0 0 0 0 0 0 0 0 0 0 127 0" result="hardAlpha"/>
<feOffset dy="1"/>
<feGaussianBlur stdDeviation="0.5"/>
<feComposite in2="hardAlpha" operator="out"/>
<feColorMatrix type="matrix" values="0 0 0 0 0 0 0 0 0 0 0 0 0 0 0 0 0 0 0.12 0"/>
<feBlend mode="normal" in2="BackgroundImageFix" result="effect1_dropShadow_457_439"/>
<feBlend mode="normal" in="SourceGraphic" in2="effect1_dropShadow_457_439" result="shape"/>
</filter>
</defs>
</svg>
