<svg width="200" height="140" viewBox="0 0 200 140" fill="none" xmlns="http://www.w3.org/2000/svg">
<path d="M16.7554 76.7773L2.94873 116.584L61.942 137.09L75.7487 97.2835L16.7554 76.7773Z" fill="black"/>
<path d="M75.7491 97.2835C75.5158 97.419 75.2705 97.5325 75.0161 97.6224C74.4759 97.8418 73.7638 98.1309 72.8739 98.4921L64.9509 101.596C58.1867 104.187 48.9279 107.733 38.6728 111.662L38.4565 111.744L38.3325 111.548C38.2379 111.397 38.1353 111.235 38.0327 111.072C32.1319 101.648 26.792 93.1193 22.8877 86.8837C20.9974 83.8134 19.4564 81.3108 18.3532 79.519L17.1446 77.5015C16.9931 77.2726 16.8629 77.0302 16.7559 76.7774C16.9377 76.983 17.1002 77.205 17.2413 77.4405C17.5684 77.9344 18.0012 78.588 18.5398 79.4012L23.2268 86.6697C27.1672 92.8823 32.5566 101.38 38.5122 110.769L38.8119 111.245L38.4718 111.131C48.7503 107.264 58.0301 103.774 64.8096 101.223C68.1404 99.9988 70.8535 99.0016 72.7962 98.2874C73.7017 97.9672 74.4263 97.7109 74.9759 97.5165C75.2259 97.4149 75.4847 97.3369 75.7491 97.2835Z" fill="#F7F7F7"/>
<path d="M2.94899 116.585C2.86899 116.45 9.19784 112.535 17.0831 107.842C24.9711 103.147 31.4282 99.452 31.5084 99.5868C31.5885 99.7216 25.2609 103.635 17.373 108.33C9.48753 113.023 3.02895 116.719 2.94899 116.585Z" fill="#F7F7F7"/>
<path d="M51.2906 105.905C51.4387 105.854 53.9435 112.795 56.8844 121.405C59.8264 130.019 62.0905 137.04 61.9424 137.09C61.7942 137.141 59.2901 130.202 56.3481 121.589C53.4071 112.979 51.1425 105.956 51.2906 105.905Z" fill="#F7F7F7"/>
<path d="M190.841 66.4402L132.467 76.3418L139.134 115.731L197.507 105.829L190.841 66.4402Z" fill="black"/>
<path d="M190.841 66.4403C190.709 66.6595 190.556 66.8659 190.386 67.0568C190.037 67.4859 189.576 68.053 189.002 68.758L183.832 74.9564C179.391 80.199 173.312 87.3752 166.58 95.3235L166.438 95.4912L166.245 95.3842L165.779 95.1259L142.169 81.9405C139.199 80.2523 136.778 78.8762 135.044 77.8909L133.12 76.7662C132.89 76.6452 132.671 76.5032 132.467 76.342C132.712 76.4298 132.948 76.5401 133.173 76.6714C133.67 76.9324 134.326 77.277 135.146 77.7078L142.353 81.6077C148.459 84.9712 156.811 89.5717 166.04 94.6551C166.199 94.7436 166.358 94.8321 166.505 94.9136L166.171 94.9742C172.951 87.0663 179.072 79.9268 183.544 74.7109C185.755 72.172 187.555 70.1041 188.844 68.6232C189.451 67.9435 189.937 67.3981 190.304 66.987C190.466 66.7885 190.645 66.6055 190.841 66.4403Z" fill="#EBEBEB"/>
<path d="M139.134 115.731C139.006 115.655 142.482 109.511 146.896 102.01C151.312 94.5054 154.995 88.4853 155.123 88.5606C155.251 88.6359 151.775 94.7785 147.359 102.283C142.945 109.785 139.262 115.806 139.134 115.731Z" fill="#EBEBEB"/>
<path d="M174.443 84.7767C174.543 84.6669 179.788 89.291 186.156 95.1036C192.526 100.918 197.607 105.719 197.507 105.829C197.407 105.939 192.164 101.316 185.794 95.5012C179.425 89.6886 174.343 84.8865 174.443 84.7767Z" fill="#F7F7F7"/>
<path d="M132.482 3.80125L121.967 30.5707L161.639 46.1873L172.154 19.4178L132.482 3.80125Z" fill="black"/>
<path d="M172.154 19.7897C171.991 19.8757 171.821 19.9464 171.645 20.0007C171.27 20.1354 170.777 20.3129 170.16 20.5347L164.67 22.4327L146.469 28.5721L146.319 28.6226L146.24 28.4849L146.049 28.1522C142.284 21.5613 138.877 15.5968 136.386 11.2358C135.181 9.08948 134.199 7.33998 133.496 6.08734C133.177 5.50162 132.921 5.03178 132.728 4.67783C132.631 4.51753 132.548 4.34861 132.482 4.17322C132.601 4.31847 132.705 4.47436 132.795 4.6389C133.005 4.98482 133.282 5.44254 133.627 6.01205L136.623 11.099C139.14 15.4453 142.581 21.39 146.384 27.9588L146.576 28.2915L146.347 28.2045L164.584 22.1745L170.113 20.3927L171.62 19.9271C171.794 19.8648 171.972 19.8188 172.154 19.7897Z" fill="#F7F7F7"/>
<path d="M121.968 30.9428C121.917 30.8486 126.341 28.3535 131.849 25.3703C137.359 22.3862 141.865 20.0442 141.915 20.1384C141.966 20.2325 137.543 22.727 132.033 25.7111C126.526 28.6944 122.019 31.0368 121.968 30.9428Z" fill="#F7F7F7"/>
<path d="M155.233 24.9945C155.336 24.9638 156.853 29.7671 158.622 35.7211C160.391 41.6772 161.741 46.5287 161.639 46.5592C161.537 46.5897 160.02 41.7877 158.251 35.8315C156.482 29.8775 155.131 25.025 155.233 24.9945Z" fill="#F7F7F7"/>
<path d="M55.263 68.2364L145.635 67.5793L148.154 129.088L54.5771 128.22L55.263 68.2364Z" fill="#F2C94C"/>
<path d="M55.2627 68.2364L98.0332 33.5902C98.9118 32.8785 100.009 32.4919 101.139 32.4954C102.269 32.499 103.363 32.8926 104.237 33.6098L145.635 67.5792" fill="#F2C94C"/>
<g opacity="0.3">
<path opacity="0.3" d="M55.2627 68.2364L98.0332 33.5902C98.9118 32.8785 100.009 32.4919 101.139 32.4954C102.269 32.499 103.363 32.8926 104.237 33.6098L145.635 67.5792" fill="#F2C94C"/>
</g>
<path d="M54.577 128.22C54.4643 128.114 61.6991 120.206 70.7345 110.559C79.773 100.909 87.1891 93.174 87.3018 93.2798C87.4145 93.3855 80.1812 101.292 71.1428 110.942C62.1074 120.589 54.6898 128.325 54.577 128.22Z" fill="black"/>
<path d="M148.153 129.088C148.038 129.191 140.992 121.443 132.418 111.784C123.841 102.122 116.985 94.2095 117.1 94.1065C117.216 94.0036 124.26 101.75 132.837 111.412C141.41 121.07 148.269 128.985 148.153 129.088Z" fill="black"/>
<g opacity="0.5">
<path opacity="0.5" d="M145.634 67.5793L100.255 103.871L55.2627 68.2364" fill="black"/>
</g>
<path d="M59.8134 71.5971L59.6724 43.3409L138.805 42.4042L139.696 72.1345L100.25 103.396L59.8134 71.5971Z" fill="#F7F7F7"/>
<path d="M59.8138 71.5971C59.8138 71.5971 60.0698 71.7889 60.556 72.1664L62.7028 73.8404L70.8687 80.2344L100.301 103.332L100.199 103.332L139.636 72.0573L139.598 72.1376C139.428 66.4657 139.249 60.5157 139.067 54.4606C138.945 50.3847 138.824 46.3565 138.706 42.4076L138.806 42.5039L59.6737 43.4053L59.7369 43.3409C59.7679 52.2313 59.7925 59.2906 59.8094 64.1307C59.8143 66.5503 59.818 68.4145 59.8205 69.6773C59.8201 70.3062 59.8198 70.7846 59.8196 71.1092C59.8185 71.4314 59.8138 71.5974 59.8138 71.5974C59.8138 71.5974 59.8076 71.4366 59.8033 71.117C59.7998 70.794 59.7948 70.3179 59.7879 69.692C59.7779 68.4312 59.7631 66.5698 59.7439 64.1536C59.7124 59.3084 59.6666 52.2416 59.6088 43.3416L59.6084 43.2779L59.6721 43.2771L138.804 42.3053L138.901 42.3041L138.904 42.4017C139.023 46.3507 139.144 50.3788 139.266 54.4547C139.448 60.5099 139.626 66.4599 139.796 72.1318L139.797 72.1817L139.758 72.2123L100.301 103.46L100.25 103.501L100.2 103.461C87.9355 93.7963 77.8312 85.8339 70.7902 80.2853L62.6594 73.8634L60.5336 72.1776C60.0547 71.7961 59.8138 71.5971 59.8138 71.5971Z" fill="black"/>
<path d="M126.3 56.631C126.3 56.6862 114.198 56.8044 99.2728 56.8951C84.3424 56.9859 72.2426 57.0147 72.2422 56.9595C72.2418 56.9043 84.3412 56.7861 99.2716 56.6954C114.197 56.6047 126.299 56.5759 126.3 56.631Z" fill="black"/>
<path d="M126.3 64.6125C126.3 64.6676 114.198 64.7859 99.2728 64.8766C84.3424 64.9673 72.2426 64.9961 72.2422 64.941C72.2418 64.8858 84.3412 64.7676 99.2716 64.6769C114.197 64.5861 126.299 64.5572 126.3 64.6125Z" fill="black"/>
<path d="M126.3 73.8117C126.3 73.8669 114.198 73.9852 99.2728 74.0759C84.3424 74.1666 72.2426 74.1954 72.2422 74.1403C72.2418 74.0851 84.3412 73.9669 99.2716 73.8761C114.197 73.7854 126.299 73.7566 126.3 73.8117Z" fill="black"/>
<path d="M126.299 83.0108C126.3 83.066 114.754 83.1809 100.515 83.2674C86.2706 83.354 74.7269 83.3794 74.7266 83.3242C74.7262 83.269 86.2694 83.1542 100.514 83.0677C114.753 82.9811 126.299 82.9557 126.299 83.0108Z" fill="black"/>
<path d="M116.178 91.0856C116.073 91.1019 115.967 91.1093 115.861 91.1078L114.952 91.1325L111.609 91.1878L100.58 91.3461C96.2709 91.4181 92.3697 91.4425 89.5464 91.4458L86.2027 91.4376L85.2936 91.4248C85.1876 91.4277 85.0816 91.4217 84.9766 91.4068C85.0813 91.3905 85.1873 91.3831 85.2933 91.3846L86.2022 91.3599L89.5453 91.3046L100.577 91.1463C104.884 91.0744 108.785 91.0499 111.608 91.0466L114.952 91.0547L115.861 91.0675C115.967 91.0646 116.073 91.0707 116.178 91.0856Z" fill="black"/>
<path d="M105.99 98.8468C105.99 98.902 103.41 98.9465 100.228 98.9465C97.0446 98.9465 94.4648 98.9018 94.4648 98.8468C94.4648 98.7918 97.0446 98.7471 100.228 98.7471C103.41 98.747 105.99 98.7917 105.99 98.8468Z" fill="black"/>
<path d="M132.627 92.5801C137.906 92.5801 142.186 88.2958 142.186 83.0109C142.186 77.7259 137.906 73.4417 132.627 73.4417C127.348 73.4417 123.068 77.7259 123.068 83.0109C123.068 88.2958 127.348 92.5801 132.627 92.5801Z" fill="#F2C94C"/>
<path d="M130.138 92.5801C135.418 92.5801 139.697 88.2958 139.697 83.0109C139.697 77.7259 135.418 73.4417 130.138 73.4417C124.859 73.4417 120.58 77.7259 120.58 83.0109C120.58 88.2958 124.859 92.5801 130.138 92.5801Z" fill="#F7F7F7"/>
<path d="M131.353 78.5555V86.5116H129.878V79.7944H128.197V78.5555H131.353Z" fill="#F2C94C"/>
<path d="M60.4331 30.4361L69.1747 30.4333L67.993 29.0737L67.9919 25.8173C67.9917 25.3985 67.9092 24.9839 67.749 24.597C67.5888 24.2102 67.354 23.8587 67.0582 23.5627C66.7623 23.2667 66.4111 23.032 66.0245 22.8718C65.638 22.7117 65.2238 22.6294 64.8055 22.6295C63.9607 22.6298 63.1506 22.966 62.5534 23.5642C61.9563 24.1625 61.6209 24.9736 61.6212 25.8194L61.6223 28.9183L60.4331 30.4361Z" fill="#F2C94C"/>
<path d="M63.582 30.006C63.5897 30.1982 63.6383 30.3865 63.7246 30.5584C63.8108 30.7303 63.9326 30.8817 64.082 31.0027C64.2314 31.1237 64.4048 31.2113 64.5907 31.2598C64.7766 31.3083 64.9707 31.3166 65.1601 31.284C65.3494 31.2514 65.5297 31.1787 65.6887 31.0708C65.8477 30.9629 65.982 30.8223 66.0824 30.6583C66.1828 30.4944 66.2471 30.3108 66.271 30.12C66.295 29.9292 66.2779 29.7354 66.2211 29.5517" fill="#F2C94C"/>
<path d="M65.2907 21.3044H64.4331V23.1288H65.2907V21.3044Z" fill="#F2C94C"/>
<path d="M77.5505 24.4465C77.5243 24.3718 77.5039 24.2953 77.4895 24.2174C77.4523 24.0531 77.4013 23.8293 77.3362 23.5419C77.2577 23.1755 77.154 22.815 77.0259 22.463C76.9511 22.2544 76.8977 22.0191 76.7918 21.787C76.6896 21.5531 76.5811 21.3045 76.4664 21.0414C75.8782 19.7841 75.0962 18.6273 74.1491 17.6132C72.5824 15.9654 70.6087 14.761 68.4277 14.122C66.2468 13.483 63.9359 13.4321 61.729 13.9742C61.439 14.0359 61.1593 14.1473 60.8705 14.2324C60.5779 14.3149 60.292 14.4195 60.0152 14.5455C58.8406 15.0209 57.747 15.6761 56.7734 16.4879C54.618 18.2668 53.0991 20.6994 52.446 23.4185C52.0982 24.8755 52.0132 26.383 52.1951 27.87C52.3538 29.4066 52.7991 30.8997 53.508 32.2718L53.7302 32.6891L53.7595 32.7442L53.7423 32.8008C53.0359 35.1214 52.3433 37.3971 51.672 39.6023L51.4904 39.4379C53.3778 38.4525 55.2079 37.4973 56.9637 36.5808L57.0314 36.5454L57.0931 36.593C58.7781 37.8916 60.7579 38.7525 62.856 39.0989C64.6465 39.3796 66.4761 39.2766 68.2237 38.7965C69.9714 38.3164 71.5974 37.4702 72.9939 36.314C74.1373 35.3603 75.1112 34.2197 75.8741 32.9404C76.9773 31.0751 77.5883 28.9595 77.6497 26.7926C77.6523 26.4139 77.6544 26.0777 77.6562 25.7838C77.6311 25.4967 77.6096 25.2522 77.5918 25.0503C77.5765 24.8615 77.5645 24.7128 77.5554 24.6004C77.5489 24.5494 77.5472 24.498 77.5503 24.4467C77.5638 24.496 77.5727 24.5466 77.5769 24.5976C77.5911 24.7095 77.6101 24.8575 77.6341 25.046C77.6576 25.2485 77.686 25.4936 77.7193 25.7813C77.7232 26.0767 77.7277 26.4151 77.7328 26.7964C77.7106 27.7314 77.5951 28.6618 77.388 29.5738C77.081 30.7806 76.6166 31.9417 76.0067 33.0271C75.2436 34.3302 74.2643 35.4936 73.1108 36.4673C71.6986 37.6506 70.0507 38.5189 68.2769 39.0144C66.5032 39.5099 64.6443 39.6212 62.8242 39.341C60.6857 38.9948 58.6665 38.1227 56.9476 36.8029L57.077 36.8151C55.3226 37.7344 53.4941 38.6925 51.6079 39.6808L51.332 39.8253L51.4259 39.5165C52.0959 37.3107 52.7874 35.0347 53.4925 32.7138L53.5046 32.8253L53.2773 32.3991C52.5528 30.9963 52.0979 29.4697 51.9363 27.8988C51.7514 26.3789 51.8397 24.8381 52.1968 23.3494C52.8656 20.5764 54.4193 18.0973 56.6224 16.288C57.6158 15.4643 58.7311 14.8005 59.9285 14.3203C60.2105 14.1935 60.5017 14.0881 60.7995 14.005C61.0935 13.9195 61.3784 13.8074 61.6734 13.7458C64.6099 13.0158 67.7092 13.3419 70.4299 14.6671C73.1506 15.9924 75.3196 18.2326 76.5581 20.9962C76.6698 21.263 76.7754 21.5152 76.875 21.7529C76.978 21.9883 77.0282 22.2265 77.0995 22.4377C77.2222 22.7941 77.3185 23.159 77.3875 23.5295C77.4421 23.82 77.4845 24.0468 77.5157 24.2127C77.5332 24.2896 77.5448 24.3678 77.5505 24.4465Z" fill="#F2C94C"/>
</svg>
