<svg width="11" height="11" viewBox="0 0 11 11" fill="none" xmlns="http://www.w3.org/2000/svg">
<circle opacity="0.05" cx="4" cy="7" r="3.5" fill="black" stroke="black"/>
<path d="M11 2H9V0L11 2ZM9 2.5H11V7.25C11 7.66422 10.6642 8 10.25 8H5.75C5.33578 8 5 7.66406 5 7.25V0.75C5 0.335781 5.33578 0 5.75 0H8.5L8.50006 2C8.5 2.27656 8.72344 2.5 9 2.5ZM6 1.375C6 1.44344 6.05672 1.5 6.125 1.5H7.375C7.44375 1.5 7.5 1.44344 7.5 1.375V1.125C7.5 1.05672 7.44375 1 7.375 1H6.125C6.05672 1 6 1.05672 6 1.125V1.375ZM6.125 2.5H7.375C7.44375 2.5 7.5 2.44375 7.5 2.375V2.125C7.5 2.05625 7.44375 2 7.375 2H6.125C6.05672 2 6 2.05625 6 2.125V2.375C6 2.44375 6.05672 2.5 6.125 2.5ZM8.08594 4.95L7.98594 4.925C7.62969 4.81563 7.6375 4.75156 7.65 4.69531C7.67148 4.57325 7.90922 4.54345 8.12297 4.57617C8.21037 4.58936 8.30625 4.62011 8.39781 4.65186C8.56016 4.70802 8.73891 4.62158 8.79547 4.45905C8.85211 4.29592 8.76592 4.1178 8.60281 4.06108C8.49002 4.02227 8.39797 3.99736 8.31281 3.97869V3.875C8.31281 3.70266 8.17292 3.5625 8.00031 3.5625C7.8277 3.5625 7.68781 3.70264 7.68781 3.875V3.96863C7.3375 4.04375 7.09062 4.2625 7.03437 4.58906C6.91866 5.25844 7.55297 5.44453 7.82375 5.52406L7.91456 5.55044C8.37206 5.6813 8.36456 5.72528 8.35081 5.80481C8.32933 5.92687 8.09159 5.95716 7.87722 5.92395C7.76881 5.90784 7.63019 5.85803 7.50753 5.81409L7.4377 5.7887C7.27505 5.73255 7.09661 5.81702 7.03895 5.97964C6.98158 6.1423 7.06678 6.32089 7.22958 6.37855L7.29623 6.40198C7.41745 6.44556 7.55217 6.48933 7.6878 6.51936V6.625C7.6878 6.79734 7.82769 6.9375 8.0003 6.9375C8.17291 6.9375 8.3128 6.79736 8.3128 6.625V6.52728C8.66217 6.45239 8.90983 6.23775 8.96639 5.91119C9.08281 5.23438 8.43437 5.04844 8.08594 4.95Z" fill="black"/>
</svg>
