<svg width="76" height="76" viewBox="0 0 76 76" fill="none" xmlns="http://www.w3.org/2000/svg">
<circle opacity="0.05" cx="32" cy="32" r="31.5" fill="black" stroke="black"/>
<path d="M39.0213 42.8125C39.0213 40.7705 37.3688 39.1204 35.3338 39.1204L33.5938 39.125C29.5214 39.125 26.2188 42.4276 26.2188 46.5092V52.0163C26.2188 56.099 29.526 59.4062 33.5938 59.4062H35.4375C37.4725 59.4062 39.125 57.7515 39.125 55.7118L39.0213 42.8125ZM46.5 17C30.01 17 17.5281 30.7244 17.0024 46.5L17 51.1094C17 52.642 18.2388 53.875 19.6619 53.875C21.0851 53.875 22.5312 52.642 22.5312 51.1094V46.5C22.5312 33.2826 33.2872 22.5543 46.5 22.5543C59.7174 22.5543 70.4688 33.2826 70.4688 46.5V63.0938C70.4688 65.6393 68.4049 67.7031 65.8594 67.7031H53.1029C52.1465 66.0553 50.3834 64.9375 48.3438 64.9375H44.8637C42.1891 64.9375 39.7357 66.7455 39.2322 69.3729C38.5488 72.9117 41.2453 76 44.5525 76H48.3438C50.3857 76 52.1499 74.881 53.1075 73.2344H65.8594C71.4598 73.2344 76 68.6941 76 63.0938V46.5C75.4699 30.7244 62.99 17 46.5 17ZM59.4062 59.4062C63.4786 59.4062 66.7812 56.099 66.7812 52.0163V46.5115C66.7812 42.4322 63.474 39.125 59.4062 39.125H57.5625C55.5275 39.125 53.875 40.7775 53.875 42.8171V55.7072C53.875 57.7584 55.5229 59.4062 57.5625 59.4062H59.4062Z" fill="black"/>
</svg>
