<svg width="84" height="70" viewBox="0 0 84 70" fill="none" xmlns="http://www.w3.org/2000/svg">
<circle opacity="0.05" cx="30" cy="30" r="29.5" fill="black" stroke="black"/>
<g clip-path="url(#clip0_582_414)">
<path d="M41.5106 63.7001C41.5239 64.3837 41.7213 65.0596 42.08 65.6338L43.8958 68.4437C44.4536 69.305 45.7308 70.0055 46.7274 70.0055H53.2851C54.2945 70.0055 55.5568 69.3061 56.1146 68.4448L57.9304 65.6349C58.2757 65.047 58.4732 64.3848 58.4998 63.7012V59.5055L41.5104 59.5061L41.5106 63.7001ZM49.9469 14.0018C39.1094 14.0291 31.3 22.9798 31.3 33.1516C31.3 37.8132 32.9363 42.3129 35.924 45.8173C37.6899 47.8812 40.4248 52.1862 41.4745 55.8229C41.4745 55.8502 41.4867 55.8787 41.4867 55.9061L58.5186 55.9061C58.5186 55.8788 58.5274 55.8502 58.5274 55.8229C59.5766 52.1862 62.311 47.8812 64.0779 45.8173C67.0657 42.3173 68.7019 37.8176 68.7019 33.1516C68.7 22.5992 60.285 13.9744 49.9469 14.0018ZM50 24.5012C45.3112 24.5012 41.5 28.4245 41.5 33.1527C41.5 34.1234 40.743 34.9027 39.8 34.9027C38.857 34.9027 38.1 34.1234 38.1 33.1527C38.1106 26.4798 43.4231 21.0154 50 21.0012C50.943 21.0012 51.7 21.7806 51.7 22.7512C51.7 23.7218 50.9456 24.5012 50 24.5012ZM27.9 35.0001C27.9 33.5509 26.7578 32.3751 25.35 32.3751H18.55C17.1422 32.3751 16 33.5509 16 35.0001C16 36.4493 17.1422 37.6251 18.55 37.6251H25.35C26.7525 37.6251 27.9 36.4548 27.9 35.0001ZM81.45 32.3751H74.65C73.2422 32.3751 72.1 33.5509 72.1 35.0001C72.1 36.4493 73.2422 37.6251 74.65 37.6251H81.45C82.8578 37.6251 84 36.4493 84 35.0001C84 33.5509 82.8631 32.3751 81.45 32.3751ZM29.9294 20.0431L24.0325 16.5431C23.2489 16.0509 22.2656 16.0372 21.4559 16.502C20.6591 16.9806 20.1671 17.8561 20.1671 18.7989C20.1804 19.7559 20.6851 20.6309 21.4825 21.0827L27.3794 24.5821C28.163 25.0743 29.1463 25.088 29.9559 24.6231C30.7528 24.1446 31.2437 23.2691 31.2437 22.3263C31.2363 21.3698 30.7263 20.4948 29.9294 20.0431ZM78.5175 48.9235L72.6206 45.4235C71.837 44.9313 70.8548 44.9177 70.0441 45.3825C69.2472 45.861 68.7563 46.7366 68.7563 47.6794C68.7696 48.6364 69.2743 49.5114 70.0717 49.9631L75.9686 53.4631C77.1777 54.1604 78.7183 53.7229 79.4089 52.4788C80.1006 51.2423 79.6969 49.6563 78.5175 48.9235ZM27.3794 45.4235L21.4846 48.9235C20.6877 49.3747 20.1831 50.2502 20.1693 51.2073C20.1693 52.1506 20.6607 53.0262 21.4581 53.5041C22.2682 53.969 23.2505 53.9553 24.0346 53.4631L29.9315 49.9631C31.113 49.2248 31.5114 47.6389 30.8213 46.4084C30.1313 45.161 28.5906 44.7235 27.3794 45.4235ZM71.3563 24.9376C71.7945 24.9376 72.2328 24.8145 72.6312 24.5821L78.5154 21.0821C79.7107 20.3438 80.0964 18.7579 79.4052 17.5274C78.7146 16.2838 77.174 15.8452 75.9648 16.5431L70.0813 20.0431C69.0719 20.6309 68.5938 21.8477 68.8859 22.9962C69.1888 24.1446 70.1981 24.9376 71.3563 24.9376Z" fill="black"/>
</g>
<defs>
<clipPath id="clip0_582_414">
<rect width="68" height="56" fill="white" transform="translate(16 14)"/>
</clipPath>
</defs>
</svg>
