<svg width="12" height="11" viewBox="0 0 12 11" fill="none" xmlns="http://www.w3.org/2000/svg">
<circle opacity="0.05" cx="4" cy="7" r="3.5" fill="black" stroke="black"/>
<path d="M6.98594 3.5C6.98594 3.22313 6.76188 2.99938 6.48594 2.99938L6.25 3C5.69781 3 5.25 3.44781 5.25 4.00125V4.74797C5.25 5.30156 5.69844 5.75 6.25 5.75H6.5C6.77594 5.75 7 5.52563 7 5.24906L6.98594 3.5ZM8 0C5.76406 0 4.07161 1.86094 4.00033 4L4 4.625C4 4.83281 4.16797 5 4.36094 5C4.55391 5 4.75 4.83281 4.75 4.625V4C4.75 2.20781 6.20844 0.753125 8 0.753125C9.79219 0.753125 11.25 2.20781 11.25 4V6.25C11.25 6.59516 10.9702 6.875 10.625 6.875H8.89531C8.76562 6.65156 8.52656 6.5 8.25 6.5H7.77813C7.41547 6.5 7.08281 6.74516 7.01453 7.10141C6.92187 7.58125 7.2875 8 7.73594 8H8.25C8.52687 8 8.76609 7.84827 8.89594 7.625H10.625C11.3844 7.625 12 7.00937 12 6.25V4C11.9281 1.86094 10.2359 0 8 0ZM9.75 5.75C10.3022 5.75 10.75 5.30156 10.75 4.74797V4.00156C10.75 3.44844 10.3016 3 9.75 3H9.5C9.22406 3 9 3.22406 9 3.50062V5.24844C9 5.52656 9.22344 5.75 9.5 5.75H9.75Z" fill="black"/>
</svg>
