<svg width="12" height="11" viewBox="0 0 12 11" fill="none" xmlns="http://www.w3.org/2000/svg">
<circle opacity="0.05" cx="4" cy="7" r="3.5" fill="black" stroke="black"/>
<path d="M6.37641 7.09928C6.37816 7.19693 6.40429 7.29349 6.45177 7.37551L6.6921 7.77689C6.76592 7.89993 6.93495 8 7.06686 8H7.9348C8.06839 8 8.23545 7.90009 8.30928 7.77705L8.54961 7.37567C8.59531 7.29169 8.62146 7.19709 8.62497 7.09944V6.5001L6.37638 6.50018L6.37641 7.09928ZM7.49297 9.26206e-06C6.05859 0.00391524 5.025 1.28249 5.025 2.73552C5.025 3.40141 5.24156 4.04418 5.637 4.54477C5.87072 4.83959 6.23269 5.45455 6.37163 5.97405C6.37163 5.97795 6.37324 5.98202 6.37324 5.98593L8.62746 5.98594C8.62746 5.98203 8.62863 5.97795 8.62863 5.97405C8.76749 5.45455 9.12939 4.83959 9.36325 4.54477C9.75869 4.0448 9.97525 3.40204 9.97525 2.73552C9.975 1.22812 8.86125 -0.00389672 7.49297 9.26206e-06ZM7.5 1.49982C6.87942 1.49982 6.375 2.06025 6.375 2.73567C6.375 2.87434 6.2748 2.98566 6.15 2.98566C6.0252 2.98566 5.925 2.87434 5.925 2.73567C5.92641 1.78246 6.62953 1.00189 7.5 0.999856C7.6248 0.999856 7.725 1.11119 7.725 1.24984C7.725 1.38849 7.62516 1.49982 7.5 1.49982ZM4.575 2.99956C4.575 2.79255 4.42383 2.62459 4.2375 2.62459H3.3375C3.15117 2.62459 3 2.79255 3 2.99956C3 3.20658 3.15117 3.37454 3.3375 3.37454H4.2375C4.42313 3.37454 4.575 3.20736 4.575 2.99956ZM11.6625 2.62459H10.7625C10.5762 2.62459 10.425 2.79255 10.425 2.99956C10.425 3.20658 10.5762 3.37454 10.7625 3.37454H11.6625C11.8488 3.37454 12 3.20658 12 2.99956C12 2.79255 11.8495 2.62459 11.6625 2.62459ZM4.84359 0.862991L4.06312 0.363025C3.95941 0.292717 3.82927 0.290764 3.72211 0.357166C3.61664 0.425521 3.55153 0.55059 3.55153 0.685268C3.55329 0.821978 3.62009 0.946969 3.72563 1.0115L4.50609 1.51138C4.6098 1.58169 4.73995 1.58364 4.84711 1.51724C4.95258 1.44889 5.01755 1.32382 5.01755 1.18914C5.01656 1.05251 4.94906 0.927517 4.84359 0.862991ZM11.2744 4.98849L10.4939 4.48852C10.3902 4.41822 10.2602 4.41626 10.1529 4.48266C10.0474 4.55102 9.98245 4.67609 9.98245 4.81077C9.98421 4.94748 10.051 5.07247 10.1565 5.13699L10.937 5.63696C11.097 5.73656 11.301 5.67407 11.3924 5.49634C11.4839 5.31972 11.4305 5.09317 11.2744 4.98849ZM4.50609 4.48852L3.72591 4.98849C3.62044 5.05294 3.55364 5.17801 3.55181 5.31472C3.55181 5.44947 3.61685 5.57454 3.72239 5.64282C3.82962 5.70922 3.95963 5.70727 4.06341 5.63696L4.84387 5.13699C5.00025 5.03153 5.05298 4.80499 4.96165 4.62922C4.87031 4.45103 4.66641 4.38853 4.50609 4.48852ZM10.3266 1.56216C10.3846 1.56216 10.4426 1.54458 10.4953 1.51138L11.2741 1.01142C11.4323 0.905956 11.4833 0.679409 11.3919 0.50364C11.3005 0.325996 11.0966 0.263344 10.9365 0.363025L10.1578 0.862991C10.0242 0.946969 9.96094 1.12079 9.99961 1.28484C10.0397 1.44889 10.1733 1.56216 10.3266 1.56216Z" fill="black"/>
</svg>
