<svg width="28" height="26" viewBox="0 0 28 26" fill="none" xmlns="http://www.w3.org/2000/svg">
<path d="M0 2.49505C0 1.3349 0.895625 0.394043 2 0.394043H26C27.1063 0.394043 28 1.3349 28 2.49505C28 3.65718 27.1063 4.59606 26 4.59606H2C0.895625 4.59606 0 3.65718 0 2.49505ZM0 13.0001C0 11.838 0.895625 10.8991 2 10.8991H26C27.1063 10.8991 28 11.838 28 13.0001C28 14.1622 27.1063 15.1011 26 15.1011H2C0.895625 15.1011 0 14.1622 0 13.0001ZM26 25.6062H2C0.895625 25.6062 0 24.6673 0 23.5052C0 22.343 0.895625 21.4041 2 21.4041H26C27.1063 21.4041 28 22.343 28 23.5052C28 24.6673 27.1063 25.6062 26 25.6062Z" fill="black"/>
</svg>
