<svg width="161" height="133" viewBox="0 0 161 133" fill="none" xmlns="http://www.w3.org/2000/svg">
<path d="M32.4951 20.6529C32.5092 19.9204 33.1274 19.3309 33.8849 19.3309H79.8352C80.6029 19.3309 81.4184 19.9385 81.4184 20.6811V124.398C81.4184 124.953 81.0937 125.484 80.688 125.876C80.2823 126.267 79.6838 126.486 79.1107 126.484L32.6572 126.362C32.079 126.362 31.5236 126.137 31.1096 125.735C30.9097 125.54 30.7515 125.306 30.6448 125.048C30.538 124.791 30.4848 124.514 30.4885 124.235L32.4951 20.6529Z" fill="black"/>
<g opacity="0.52">
<g style="mix-blend-mode:overlay" opacity="0.52">
<path d="M58.8838 26.6812L73.9151 26.6308L73.9095 24.8119L58.895 24.8578L58.8838 26.6812Z" fill="#F7F7F7"/>
</g>
<g style="mix-blend-mode:overlay" opacity="0.52">
<path d="M58.8428 33.3809L73.9359 33.3144L73.9303 31.4804L58.8541 31.5425L58.8428 33.3809Z" fill="#F7F7F7"/>
</g>
<g style="mix-blend-mode:overlay" opacity="0.52">
<path d="M58.8013 40.1361L73.9568 40.053L73.9511 38.2039L58.8127 38.2825L58.8013 40.1361Z" fill="#F7F7F7"/>
</g>
<g style="mix-blend-mode:overlay" opacity="0.52">
<path d="M58.7588 46.9474L73.9772 46.8474L73.9714 44.9831L58.7703 45.0785L58.7588 46.9474Z" fill="#F7F7F7"/>
</g>
<g style="mix-blend-mode:overlay" opacity="0.52">
<path d="M58.7173 53.8154L73.999 53.6983L73.9932 51.8185L58.7289 51.9308L58.7173 53.8154Z" fill="#F7F7F7"/>
</g>
<g style="mix-blend-mode:overlay" opacity="0.52">
<path d="M58.6318 67.7246L74.0419 67.5724L74.0359 65.6609L58.6436 65.8082L58.6318 67.7246Z" fill="#F7F7F7"/>
</g>
<g style="mix-blend-mode:overlay" opacity="0.52">
<path d="M58.5005 89.0323L74.107 88.8253L74.101 86.8648L58.5126 87.0667L58.5005 89.0323Z" fill="#F7F7F7"/>
</g>
<g style="mix-blend-mode:overlay" opacity="0.52">
<path d="M58.6743 60.7409L74.0198 60.6064L74.014 58.7108L58.686 58.8406L58.6743 60.7409Z" fill="#F7F7F7"/>
</g>
<g style="mix-blend-mode:overlay" opacity="0.52">
<path d="M58.5884 74.7673L74.0633 74.5971L74.0574 72.6694L58.6002 72.8348L58.5884 74.7673Z" fill="#F7F7F7"/>
</g>
<g style="mix-blend-mode:overlay" opacity="0.52">
<path d="M58.5444 81.8696L74.0849 81.6811L74.079 79.7372L58.5564 79.9206L58.5444 81.8696Z" fill="#F7F7F7"/>
</g>
<g style="mix-blend-mode:overlay" opacity="0.52">
<path d="M58.4556 96.2563L74.1288 96.0303L74.1226 94.0531L58.4678 94.2738L58.4556 96.2563Z" fill="#F7F7F7"/>
</g>
<g style="mix-blend-mode:overlay" opacity="0.52">
<path d="M58.4106 103.542L74.1511 103.297L74.1449 101.303L58.423 101.543L58.4106 103.542Z" fill="#F7F7F7"/>
</g>
<g style="mix-blend-mode:overlay" opacity="0.52">
<path d="M58.3662 110.891L74.1744 110.626L74.1682 108.615L58.3786 108.874L58.3662 110.891Z" fill="#F7F7F7"/>
</g>
<g style="mix-blend-mode:overlay" opacity="0.52">
<path d="M58.3203 118.303L74.1969 118.019L74.1907 115.99L58.3329 116.269L58.3203 118.303Z" fill="#F7F7F7"/>
</g>
<path d="M39.1763 26.7472L54.3019 26.6965L54.3183 24.8719L39.2096 24.918L39.1763 26.7472Z" fill="#F7F7F7"/>
<path d="M39.0542 33.4683L54.2425 33.4013L54.2589 31.5615L39.0879 31.624L39.0542 33.4683Z" fill="#F7F7F7"/>
<path d="M38.9302 40.2452L54.1816 40.1615L54.1982 38.3065L38.9641 38.3856L38.9302 40.2452Z" fill="#F7F7F7"/>
<path d="M38.8052 47.0787L54.1202 46.978L54.137 45.1076L38.8394 45.2036L38.8052 47.0787Z" fill="#F7F7F7"/>
<g style="mix-blend-mode:overlay" opacity="0.52">
<path d="M38.6797 53.9691L54.0588 53.8512L54.0757 51.9652L38.7142 52.0783L38.6797 53.9691Z" fill="#F7F7F7"/>
</g>
<path d="M38.4253 67.9242L53.9344 67.771L53.9516 65.8531L38.4604 66.0014L38.4253 67.9242Z" fill="#F7F7F7"/>
<path d="M38.0347 89.3038L53.7429 89.0954L53.7605 87.1283L38.0707 87.3315L38.0347 89.3038Z" fill="#F7F7F7"/>
<path d="M38.5532 60.9174L53.9971 60.782L54.0142 58.8801L38.588 59.0107L38.5532 60.9174Z" fill="#F7F7F7"/>
<path d="M38.2964 74.9905L53.8713 74.8192L53.8887 72.8851L38.3318 73.0514L38.2964 74.9905Z" fill="#F7F7F7"/>
<path d="M38.166 82.1168L53.8073 81.9271L53.8248 79.9765L38.2017 80.1612L38.166 82.1168Z" fill="#F7F7F7"/>
<path d="M37.9028 96.5525L53.6786 96.3251L53.6964 94.3411L37.9392 94.5633L37.9028 96.5525Z" fill="#F7F7F7"/>
<path d="M37.769 103.864L53.6128 103.617L53.6308 101.616L37.8056 101.857L37.769 103.864Z" fill="#F7F7F7"/>
<path d="M37.6348 111.238L53.5473 110.972L53.5654 108.953L37.6717 109.214L37.6348 111.238Z" fill="#F7F7F7"/>
<path d="M37.4985 118.677L53.4803 118.39L53.4986 116.354L37.5358 116.635L37.4985 118.677Z" fill="#F7F7F7"/>
</g>
<path d="M6.12684 49.2612C6.14697 48.4141 7.02047 47.7169 8.09121 47.7169H48.562C49.6471 47.7169 50.7127 48.4504 50.7127 49.3091V126.061C50.7127 126.474 50.4119 126.87 50.0424 127.162C49.6728 127.453 49.1252 127.617 48.6032 127.615L6.28873 127.524C5.76218 127.523 5.24669 127.355 4.8784 127.057C4.51012 126.759 4.30247 126.347 4.31235 125.931L6.12684 49.2612Z" fill="black"/>
<path d="M35.9316 56.7611L47.4609 56.7488L47.5524 52.0722H36.0119L35.9316 56.7611Z" fill="#F7F7F7"/>
<path d="M23.0088 56.7588L34.5265 56.7465L34.6054 52.0722H23.0765L23.0088 56.7588Z" fill="#F7F7F7"/>
<path d="M10.0986 56.7565L21.6048 56.7443L21.6711 52.0722H10.1539L10.0986 56.7565Z" fill="#F7F7F7"/>
<path d="M35.7876 65.1557L47.2968 65.1615L47.3879 60.5153L35.8676 60.5115L35.7876 65.1557Z" fill="#F7F7F7"/>
<path d="M22.8872 65.1491L34.3848 65.155L34.4635 60.5111L22.9547 60.5074L22.8872 65.1491Z" fill="#F7F7F7"/>
<path d="M9.99951 65.1426L21.4856 65.1484L21.5517 60.5069L10.0546 60.5032L9.99951 65.1426Z" fill="#F7F7F7"/>
<path d="M35.6436 73.4925L47.1327 73.502L47.2235 68.8719L35.7233 68.8645L35.6436 73.4925Z" fill="#F7F7F7"/>
<path d="M22.7656 73.4818L34.2433 73.4913L34.3216 68.8636L22.8329 68.8561L22.7656 73.4818Z" fill="#F7F7F7"/>
<path d="M9.90088 73.4711L21.367 73.4806L21.4328 68.8552L9.9557 68.8477L9.90088 73.4711Z" fill="#F7F7F7"/>
<path d="M35.5005 81.8004L46.9697 81.8137L47.0602 77.1996L35.5799 77.1884L35.5005 81.8004Z" fill="#F7F7F7"/>
<path d="M22.6445 81.7856L34.1023 81.7988L34.1804 77.1871L22.7116 77.1759L22.6445 81.7856Z" fill="#F7F7F7"/>
<path d="M9.80273 81.7708L21.249 81.784L21.3147 77.1746L9.85734 77.1634L9.80273 81.7708Z" fill="#F7F7F7"/>
<path d="M35.3579 90.0796L46.8072 90.0966L46.8974 85.4985L35.4371 85.4836L35.3579 90.0796Z" fill="#F7F7F7"/>
<path d="M22.5249 90.0607L33.9627 90.0776L34.0406 85.4818L22.5917 85.4669L22.5249 90.0607Z" fill="#F7F7F7"/>
<path d="M9.7041 90.0418L21.1306 90.0586L21.196 85.4651L9.75854 85.4503L9.7041 90.0418Z" fill="#F7F7F7"/>
<path d="M35.2163 98.3304L46.6457 98.351L46.7356 93.7687L35.2952 93.7502L35.2163 98.3304Z" fill="#F7F7F7"/>
<path d="M22.4048 98.3073L33.8229 98.3279L33.9004 93.7479L22.4714 93.7294L22.4048 98.3073Z" fill="#F7F7F7"/>
<path d="M9.60645 98.2843L21.0131 98.3049L21.0783 93.7271L9.66072 93.7086L9.60645 98.2843Z" fill="#F7F7F7"/>
<path d="M35.0742 106.553L46.4839 106.577L46.5735 102.01L35.1528 101.988L35.0742 106.553Z" fill="#F7F7F7"/>
<path d="M22.2856 106.526L33.6841 106.55L33.7613 101.986L22.352 101.963L22.2856 106.526Z" fill="#F7F7F7"/>
<path d="M9.50879 106.499L20.8958 106.523L20.9609 101.961L9.5629 101.939L9.50879 106.499Z" fill="#F7F7F7"/>
<path d="M34.9331 114.747L46.3231 114.774L46.4124 110.224L35.0115 110.198L34.9331 114.747Z" fill="#F7F7F7"/>
<path d="M22.166 114.715L33.5447 114.743L33.6217 110.195L22.2321 110.169L22.166 114.715Z" fill="#F7F7F7"/>
<path d="M9.41211 114.685L20.7795 114.712L20.8443 110.166L9.46599 110.14L9.41211 114.685Z" fill="#F7F7F7"/>
<path d="M34.7925 122.913L46.1629 122.944L46.2518 118.409L34.8706 118.379L34.7925 122.913Z" fill="#F7F7F7"/>
<path d="M22.0479 122.877L33.407 122.909L33.4838 118.376L22.1137 118.346L22.0479 122.877Z" fill="#F7F7F7"/>
<path d="M9.31543 122.842L20.6633 122.874L20.7279 118.343L9.36909 118.314L9.31543 122.842Z" fill="#F7F7F7"/>
<path d="M111.768 51.094C111.788 50.2468 112.662 49.5497 113.732 49.5497H154.203C155.288 49.5497 156.354 50.2832 156.354 51.1419V127.893C156.354 128.306 156.053 128.703 155.684 128.994C155.314 129.286 154.766 129.449 154.244 129.448L111.93 129.357C111.403 129.356 110.888 129.187 110.52 128.889C110.151 128.592 109.944 128.18 109.953 127.763L111.768 51.094Z" fill="black"/>
<g opacity="0.5">
<path d="M141.572 58.594L153.102 58.5818L153.193 53.9051H141.653L141.572 58.594Z" fill="#F7F7F7"/>
<path opacity="0.5" d="M128.649 58.5917L140.167 58.5795L140.246 53.9051H128.717L128.649 58.5917Z" fill="#F7F7F7"/>
<path opacity="0.5" d="M115.739 58.5893L127.245 58.577L127.311 53.9051H115.794L115.739 58.5893Z" fill="#F7F7F7"/>
<path d="M141.428 66.9885L152.937 66.9943L153.029 62.3482L141.508 62.3444L141.428 66.9885Z" fill="#F7F7F7"/>
<path opacity="0.5" d="M128.527 66.9819L140.025 66.9877L140.104 62.3439L128.595 62.3402L128.527 66.9819Z" fill="#F7F7F7"/>
<path opacity="0.5" d="M115.64 66.9755L127.126 66.9812L127.192 62.3398L115.695 62.336L115.64 66.9755Z" fill="#F7F7F7"/>
<path d="M141.284 75.3253L152.773 75.3348L152.864 70.7047L141.364 70.6973L141.284 75.3253Z" fill="#F7F7F7"/>
<path opacity="0.5" d="M128.406 75.3146L139.883 75.3241L139.962 70.6964L128.473 70.6889L128.406 75.3146Z" fill="#F7F7F7"/>
<path opacity="0.5" d="M115.542 75.304L127.008 75.3135L127.073 70.688L115.596 70.6806L115.542 75.304Z" fill="#F7F7F7"/>
<path d="M141.141 83.6332L152.61 83.6465L152.7 79.0325L141.22 79.0213L141.141 83.6332Z" fill="#F7F7F7"/>
<path opacity="0.5" d="M128.286 83.6185L139.743 83.6317L139.821 79.02L128.353 79.0088L128.286 83.6185Z" fill="#F7F7F7"/>
<path opacity="0.5" d="M115.443 83.6037L126.889 83.6169L126.955 79.0074L115.498 78.9962L115.443 83.6037Z" fill="#F7F7F7"/>
<path d="M140.999 91.9126L152.448 91.9294L152.538 87.3314L141.078 87.3165L140.999 91.9126Z" fill="#F7F7F7"/>
<path opacity="0.5" d="M128.165 91.8936L139.603 91.9104L139.681 87.3147L128.232 87.2998L128.165 91.8936Z" fill="#F7F7F7"/>
<path opacity="0.5" d="M115.344 91.8746L126.771 91.8915L126.836 87.2979L115.399 87.2831L115.344 91.8746Z" fill="#F7F7F7"/>
<path d="M140.857 100.163L152.286 100.184L152.376 95.6015L140.936 95.583L140.857 100.163Z" fill="#F7F7F7"/>
<path opacity="0.5" d="M128.045 100.14L139.463 100.161L139.541 95.5807L128.111 95.5622L128.045 100.14Z" fill="#F7F7F7"/>
<path opacity="0.5" d="M115.247 100.117L126.653 100.138L126.719 95.56L115.301 95.5415L115.247 100.117Z" fill="#F7F7F7"/>
<path d="M140.715 108.385L152.125 108.41L152.215 103.843L140.794 103.821L140.715 108.385Z" fill="#F7F7F7"/>
<path opacity="0.5" d="M127.926 108.358L139.324 108.383L139.401 103.818L127.992 103.796L127.926 108.358Z" fill="#F7F7F7"/>
<path opacity="0.5" d="M115.149 108.331L126.536 108.356L126.601 103.794L115.204 103.771L115.149 108.331Z" fill="#F7F7F7"/>
<path d="M140.573 116.579L151.963 116.607L152.053 112.056L140.652 112.031L140.573 116.579Z" fill="#F7F7F7"/>
<path opacity="0.5" d="M127.807 116.548L139.185 116.576L139.262 112.028L127.873 112.002L127.807 116.548Z" fill="#F7F7F7"/>
<path opacity="0.5" d="M115.052 116.517L126.42 116.545L126.484 111.999L115.106 111.973L115.052 116.517Z" fill="#F7F7F7"/>
<path d="M140.434 124.745L151.804 124.777L151.893 120.242L140.512 120.212L140.434 124.745Z" fill="#F7F7F7"/>
<path opacity="0.5" d="M127.688 124.71L139.047 124.741L139.124 120.209L127.754 120.179L127.688 124.71Z" fill="#F7F7F7"/>
<path opacity="0.5" d="M114.956 124.675L126.303 124.706L126.368 120.176L115.009 120.146L114.956 124.675Z" fill="#F7F7F7"/>
</g>
<path d="M56.6179 5.49631H146.483C146.82 5.49631 147.144 5.62974 147.382 5.86725C147.621 6.10476 147.755 6.42689 147.755 6.76278V127.698C147.755 128.034 147.621 128.356 147.382 128.593C147.144 128.831 146.82 128.964 146.483 128.964H56.6179C56.2806 128.964 55.9572 128.831 55.7187 128.593C55.4802 128.356 55.3462 128.034 55.3462 127.698V6.76278C55.3462 6.42689 55.4802 6.10476 55.7187 5.86725C55.9572 5.62974 56.2806 5.49631 56.6179 5.49631Z" fill="#F2C94C"/>
<path d="M132.023 24.0454H70.8807C68.563 24.0454 66.6841 25.9165 66.6841 28.2247V108.521C66.6841 110.829 68.563 112.7 70.8807 112.7H132.023C134.341 112.7 136.22 110.829 136.22 108.521V28.2247C136.22 25.9165 134.341 24.0454 132.023 24.0454Z" fill="#F7F7F7"/>
<path d="M73.2497 31.3383H129.71C129.875 31.3383 130.039 31.3707 130.192 31.4337C130.345 31.4968 130.483 31.5891 130.6 31.7055C130.717 31.8219 130.81 31.9602 130.873 32.1123C130.936 32.2644 130.969 32.4274 130.969 32.592V105.279C130.969 105.444 130.936 105.607 130.873 105.759C130.81 105.911 130.717 106.049 130.6 106.166C130.483 106.282 130.345 106.374 130.192 106.437C130.039 106.5 129.875 106.533 129.71 106.533H73.2497C72.9158 106.533 72.5956 106.401 72.3595 106.166C72.1234 105.93 71.9907 105.612 71.9907 105.279V32.592C71.9907 32.2595 72.1234 31.9406 72.3595 31.7055C72.5956 31.4704 72.9158 31.3383 73.2497 31.3383Z" fill="#F2C94C"/>
<path d="M103.337 16.9105C104.417 15.8353 104.417 14.0921 103.337 13.017C102.257 11.9418 100.507 11.9418 99.4274 13.017C98.3478 14.0921 98.3478 15.8353 99.4275 16.9105C100.507 17.9856 102.257 17.9856 103.337 16.9105Z" fill="#F7F7F7"/>
<path d="M119.242 59.4071L83.6763 59.996C80.9694 60.0408 78.7671 62.137 78.7671 64.6778V86.9832C78.7671 89.524 80.9694 91.4957 83.6763 91.3874L119.242 89.9652C121.797 89.863 123.861 87.7899 123.861 85.3342V63.7769C123.861 61.3213 121.797 59.3648 119.242 59.4071Z" fill="#F7F7F7"/>
<path d="M121.042 55.373C119.965 55.389 119.09 54.5611 119.09 53.5238V48.642C119.09 43.7445 114.931 39.772 109.781 39.7869L98.1948 39.8202C92.9126 39.8354 88.5842 43.9252 88.5842 48.937V53.9329C88.5842 54.9944 87.667 55.8685 86.534 55.8853C85.399 55.9022 84.4775 55.0527 84.4775 53.9879V48.9768C84.4775 41.8235 90.666 36.0037 98.1948 36.0037H109.781C117.096 36.0037 122.988 41.6563 122.988 48.6043V53.4715C122.988 54.5057 122.118 55.357 121.042 55.373Z" fill="#F7F7F7"/>
<path d="M107.213 71.7689C107.213 69.2902 105.04 67.344 102.398 67.5228C100.062 67.6809 98.1306 69.5438 98.0045 71.7682C97.9066 73.4942 98.8591 74.9862 100.307 75.7408C100.602 75.8967 100.839 76.1427 100.983 76.4426C101.128 76.7425 101.172 77.0807 101.109 77.4073L100.094 83.0823C99.9642 83.805 100.548 84.44 101.315 84.4126L103.925 84.3195C104.688 84.2923 105.268 83.6185 105.139 82.9075L104.124 77.2852C104.003 76.6146 104.353 75.9484 104.971 75.5807C106.314 74.7812 107.213 73.3632 107.213 71.7689Z" fill="#F2C94C"/>
</svg>
