<svg width="58" height="72" viewBox="0 0 58 72" fill="none" xmlns="http://www.w3.org/2000/svg">
<circle opacity="0.05" cx="27" cy="27" r="26.5" fill="black" stroke="black"/>
<path d="M58 31.5H44.6667V18L58 31.5ZM44.6667 34.875H58V66.9375C58 69.7335 55.7615 72 53 72H23C20.2385 72 18 69.7324 18 66.9375V23.0625C18 20.2665 20.2385 18 23 18H41.3333L41.3337 31.5C41.3333 33.3668 42.8229 34.875 44.6667 34.875ZM24.6667 27.2812C24.6667 27.7432 25.0448 28.125 25.5 28.125H33.8333C34.2917 28.125 34.6667 27.7432 34.6667 27.2812V25.5938C34.6667 25.1329 34.2917 24.75 33.8333 24.75H25.5C25.0448 24.75 24.6667 25.1329 24.6667 25.5938V27.2812ZM25.5 34.875H33.8333C34.2917 34.875 34.6667 34.4953 34.6667 34.0312V32.3438C34.6667 31.8797 34.2917 31.5 33.8333 31.5H25.5C25.0448 31.5 24.6667 31.8797 24.6667 32.3438V34.0312C24.6667 34.4953 25.0448 34.875 25.5 34.875ZM38.5729 51.4125L37.9062 51.2438C35.5312 50.5055 35.5833 50.073 35.6667 49.6934C35.8099 48.8694 37.3948 48.6683 38.8198 48.8892C39.4025 48.9782 40.0417 49.1857 40.6521 49.4001C41.7344 49.7791 42.926 49.1957 43.3031 48.0986C43.6807 46.9975 43.1061 45.7951 42.0187 45.4123C41.2668 45.1503 40.6531 44.9822 40.0854 44.8561V44.1562C40.0854 42.9929 39.1528 42.0469 38.0021 42.0469C36.8514 42.0469 35.9188 42.9928 35.9188 44.1562V44.7882C33.5833 45.2953 31.9375 46.7719 31.5625 48.9762C30.791 53.4945 35.0198 54.7506 36.825 55.2874L37.4304 55.4655C40.4804 56.3488 40.4304 56.6456 40.3387 57.1825C40.1955 58.0064 38.6106 58.2108 37.1815 57.9867C36.4587 57.8779 35.5346 57.5417 34.7169 57.2451L34.2514 57.0737C33.167 56.6947 31.9774 57.2649 31.593 58.3626C31.2105 59.4605 31.7785 60.666 32.8639 61.0552L33.3082 61.2134C34.1164 61.5075 35.0145 61.803 35.9186 62.0057V62.7188C35.9186 63.8821 36.8512 64.8281 38.002 64.8281C39.1527 64.8281 40.0853 63.8822 40.0853 62.7188V62.0591C42.4145 61.5536 44.0655 60.1048 44.4426 57.9005C45.2188 53.332 40.8958 52.077 38.5729 51.4125Z" fill="black"/>
</svg>
