<svg xmlns="http://www.w3.org/2000/svg" width="824.4" height="468.96" viewBox="0 0 824.4 468.96">
  <g id="Logo" transform="translate(1781 13849)">
    <g id="Group_51" data-name="Group 51" transform="translate(0.843)">
      <path id="Path_24" data-name="Path 24" d="M0,0H57.466V300.589H0Z" transform="translate(-1259.356 -13849)"/>
      <path id="Path_25" data-name="Path 25" d="M0,247.543V0H114.931V57.464H57.464V247.543Z" transform="translate(-1396.389 -13795.957)"/>
      <path id="Path_26" data-name="Path 26" d="M0,198.919V0H114.931V57.464H57.464V198.919Z" transform="translate(-1537.843 -13747.33)"/>
    </g>
    <path id="Path_27" data-name="Path 27" d="M75.36,0h12.6L49.8-84H37.92L-.12,0H12.24l9.24-21H66.12ZM25.68-30.6,43.8-71.76,61.92-30.6ZM204.84,0l-.12-84h-9.84L160.32-24.96,125.28-84h-9.84V0h11.52V-60.84L157.32-10.2h5.52l30.36-51L193.32,0ZM307.8,0h12.6L282.24-84H270.36L232.32,0h12.36l9.24-21h44.64ZM258.12-30.6l18.12-41.16L294.36-30.6ZM360.36,0h11.88V-73.56h28.8V-84H331.56v10.44h28.8Zm129-84v36.12H441.12V-84h-12V0h12V-37.44h48.24V0h12V-84ZM579.48.96C605.04.96,624-17.28,624-42s-18.96-42.96-44.52-42.96c-25.8,0-44.76,18.36-44.76,42.96S553.68.96,579.48.96Zm0-10.68c-18.84,0-32.76-13.68-32.76-32.28s13.92-32.28,32.76-32.28C598.08-74.28,612-60.6,612-42S598.08-9.72,579.48-9.72ZM692.16.96c22.2,0,35.52-12.84,35.52-37.2V-84H716.04v47.28c0,18.6-8.64,27-23.76,27s-23.64-8.4-23.64-27V-84h-12v47.76C656.64-11.88,670.08.96,692.16.96Zm99.6,0c22.2,0,32.52-11.04,32.52-23.88,0-30.84-50.88-18-50.88-38.52,0-7.32,6.12-13.32,20.4-13.32a43.38,43.38,0,0,1,23.04,6.84l3.96-9.6c-6.96-4.8-17.16-7.44-27-7.44-22.08,0-32.16,11.04-32.16,24,0,31.2,50.88,18.24,50.88,38.76,0,7.32-6.24,12.96-20.76,12.96-10.8,0-21.48-4.08-27.72-9.72L759.6-9.6C766.32-3.36,778.92.96,791.76.96Z" transform="translate(-1780.88 -13381)"/>
  </g>
</svg>
